<svg width="64" height="64" viewBox="0 0 64 64" fill="none" xmlns="http://www.w3.org/2000/svg">
<g id="Alat Kesehatan">
<g id="Group">
<path id="Vector" d="M32.687 13.0461H36.2312V11.0501C36.2312 8.52646 34.1974 6.47192 31.6992 6.47192C29.201 6.47192 27.1673 8.52646 27.1673 11.0501V35.526C23.0418 37.287 20.1367 41.4541 20.1367 46.2673C20.1367 52.7239 25.3078 57.9476 31.699 57.9476C38.0902 57.9476 43.2613 52.7237 43.2613 46.2673C43.2613 41.454 40.3562 37.3455 36.2308 35.526V28.8348H32.6865C32.0474 28.8348 31.5246 28.3066 31.5246 27.661C31.5246 27.0153 32.0474 26.4872 32.6865 26.4872H36.2308V24.3742H32.6865C32.0474 24.3742 31.5246 23.846 31.5246 23.2004C31.5246 22.5547 32.0474 22.0266 32.6865 22.0266H36.2308V19.8545H32.6865C32.0474 19.8545 31.5246 19.3264 31.5246 18.6807C31.5246 18.0351 32.0474 17.5069 32.6865 17.5069H36.2308V15.3939H32.6865C32.0474 15.3939 31.5246 14.8657 31.5246 14.2201C31.5246 13.5745 32.0474 13.0463 32.6865 13.0463L32.687 13.0461Z" fill="#213360"/>
</g>
</g>
</svg>
