<svg width="338" height="212" viewBox="0 0 338 212" fill="none" xmlns="http://www.w3.org/2000/svg">
<mask id="mask0_1_14087" style="mask-type:alpha" maskUnits="userSpaceOnUse" x="0" y="0" width="338" height="212">
<rect width="338" height="212" rx="16" fill="#F99746"/>
</mask>
<g mask="url(#mask0_1_14087)">
<g clip-path="url(#clip0_1_14087)">
<path opacity="0.25" d="M191.979 220.998C223.048 208.454 251.427 188.133 270.388 160.589C289.349 133.057 298.198 98.0314 291.171 65.3762C287.862 49.993 280.513 34.6222 267.303 26.0047C256.93 19.2391 244.14 17.3502 232.987 11.9673C204.719 -1.67505 192.091 -34.2933 182.399 -64.0472C172.696 -93.8134 161.171 -126.518 133.671 -141.642C103.581 -158.186 62.6972 -145.333 42.4102 -117.703C22.1232 -90.0602 20.5741 -51.7505 32.3224 -19.5768C38.9898 -1.30469 49.7591 16.6341 48.1233 36.005C46.6609 53.3388 35.5074 68.1047 28.5551 84.0681C15.6913 113.575 17.6989 149.082 33.7972 176.96C66.8488 234.208 135.17 243.937 191.979 220.998Z" fill="white"/>
<path d="M66.3047 136.094C43.2541 107.155 22.4961 75.858 10.1405 41.0175C-2.22749 6.18941 -5.73465 -32.5771 5.5428 -67.7756C30.4399 -39.5032 48.2732 -6.6875 56.9977 29.9185C65.7222 66.5244 65.4992 98.4883 66.3047 136.094Z" fill="#009B90"/>
<path d="M46.2656 139.169C43.3533 126.415 35.3971 115.427 27.1559 105.242C17.3408 93.1178 6.73258 81.4508 -5.87091 72.2284C-18.4744 63.0059 -33.2466 56.2773 -48.8368 54.981C-19.156 83.3645 12.5324 115.723 46.2656 139.169Z" fill="#009B90"/>
<path d="M5.08614 -66.6274C44.3589 16.8934 68.5869 125.464 80.3477 216.948" stroke="#2D7C54" stroke-miterlimit="10"/>
<path d="M73.332 169.564C73.332 169.564 14.5529 93.8956 -48.8363 54.981" stroke="#2D7C54" stroke-miterlimit="10"/>
<path d="M203.692 237.85C207.336 235.282 208.575 230.578 210.025 226.381C214.994 211.911 224.859 199.701 234.811 188.046C240.189 181.75 245.766 175.416 252.842 171.095C275.149 157.441 306.627 166.712 328.066 151.737C315.252 156.292 299.042 153.576 285.844 150.292C272.646 147.008 259.138 143.02 245.667 144.946C233.509 146.687 222.306 153.28 214.028 162.33C205.749 171.379 200.297 182.75 197.26 194.615C195.612 201.034 194.658 207.751 195.761 214.282C197.062 221.912 203.543 230.085 203.692 237.85Z" fill="#009B90"/>
<path d="M202.244 244.295C202.603 229.097 204.648 213.776 210.374 199.676C215.628 186.713 224.477 174.441 236.027 166.354C247.403 158.379 262.783 156.971 276.254 156.811C292.513 156.613 308.574 157.897 324.375 153.28" stroke="#2D7C54" stroke-width="1.1136" stroke-miterlimit="10"/>
<path d="M230.907 10.5599C230.907 10.5599 236.967 3.69552 238.541 -6.56402C240.115 -16.8112 239.991 -18.7249 242.321 -22.8237C242.321 -22.8237 248.914 -19.3298 242.383 -3.00837C242.383 -3.00837 250.661 -16.0951 260.514 -18.552C260.514 -18.552 258.097 -8.34185 248.443 -1.44043C248.443 -1.44043 257.961 -5.60103 267.949 -2.15649C267.949 -2.15649 263.277 2.46091 251.207 2.49795C251.207 2.49795 261.282 4.26342 263.413 12.1649C263.413 12.1649 254.379 10.8685 249.174 9.1401C243.969 7.41166 236.273 8.91788 231.899 11.8686C227.524 14.8193 230.907 10.5599 230.907 10.5599Z" fill="#FF6B6B"/>
<path d="M226.46 17.8194C226.46 17.8194 226.509 13.3378 228.492 9.49819C230.475 5.65858 235.06 -3.07007 235.06 -3.07007C235.06 -3.07007 236.622 1.60908 234.664 4.89312C234.664 4.89312 237.452 3.13998 241.418 2.97948C241.418 2.97948 240.922 5.14004 237.241 7.69566C237.241 7.69566 242.855 7.52282 244.652 8.94261C244.652 8.94261 235.42 13.8069 232.619 14.7206C229.806 15.6465 226.46 17.8194 226.46 17.8194Z" fill="#009B90"/>
<path d="M252.794 50.5733C252.794 50.5733 260.354 47.672 265.794 40.2891C271.235 32.9062 271.929 31.3753 275.423 29.116C275.423 29.116 279.154 34.5359 267.331 44.6473C267.331 44.6473 279.178 37.7952 287.891 39.8817C287.891 39.8817 281.806 46.8819 271.421 48.3387C271.421 48.3387 280.579 48.956 286.974 55.734C286.974 55.734 281.422 57.4377 271.978 52.5487C271.978 52.5487 279.129 58.0303 277.555 65.0923C277.555 65.0923 271.024 60.4008 267.666 56.9192C264.307 53.4376 257.665 51.4869 253.03 52.0055C248.395 52.524 252.794 50.5733 252.794 50.5733Z" fill="#FF6B6B"/>
<path d="M246.337 54.4378C246.337 54.4378 248.209 50.9562 251.344 48.7586C254.479 46.561 261.642 41.5979 261.642 41.5979C261.642 41.5979 260.936 45.8943 258.061 47.6598C258.061 47.6598 260.961 47.4252 264.121 48.9191C264.121 48.9191 262.844 50.413 258.916 50.9068C258.916 50.9068 263.377 53.055 264.195 54.9069C264.195 54.9069 254.975 54.944 252.41 54.5242C249.844 54.0921 246.337 54.4378 246.337 54.4378Z" fill="#009B90"/>
<path d="M203.472 96.1673C204.649 84.9571 211.404 74.8457 220.165 67.722C228.927 60.5984 239.585 56.1538 250.379 52.771" stroke="#3B865A" stroke-width="0.7672" stroke-miterlimit="10"/>
<path d="M204.586 76.5742C208.205 53.9563 215.244 31.2273 229.719 13.4243" stroke="#3B865A" stroke-width="0.7672" stroke-miterlimit="10"/>
<path d="M224.156 -13.416C218.158 -0.934185 216.807 13.6959 220.414 27.0543C223.413 13.523 224.02 0.436224 224.156 -13.416Z" fill="#009B90"/>
<path d="M234.922 54.8452C241.627 49.0302 247.142 41.8695 251.046 33.9187C251.405 33.8199 251.653 33.4248 251.764 33.7705C252.756 36.9928 251.244 40.4497 249.385 43.2523C245.481 49.1166 241.441 52.1291 234.922 54.8452Z" fill="#009B90"/>
<path d="M241.914 24.7456C229.249 27.7704 217.971 36.1904 211.49 47.4499C220.524 38.6102 231.046 31.2273 241.914 24.7456Z" fill="#009B90"/>
<path d="M240.316 66.9318C229.287 64.7959 217.241 69.3393 210.375 78.1914C220.785 75.5987 230.712 71.685 240.316 66.9318Z" fill="#009B90"/>
<path d="M211.734 292.889L197.545 198.837L123.82 225.887L102.232 292.889H211.734Z" fill="#BFC8D3"/>
<path d="M150.752 -22.441C150.752 -22.441 173.319 -23.7126 184.819 -6.31708C188.091 -1.36632 192.652 6.52279 197.547 15.8811C184.423 20.5849 171.026 23.1405 158.621 28.2765C151.83 4.18939 147.554 -17.0581 150.752 -22.441Z" fill="#2B478B"/>
<path d="M197.545 15.8936C209.814 39.3757 224.189 72.1544 225.701 91.266C227.833 117.995 197.594 117.995 189.923 112.057C185.288 108.464 169.004 65.0678 158.619 28.289C171.024 23.153 184.421 20.5974 197.545 15.8936Z" fill="#FFB27D"/>
<path d="M123.807 -28.0585C125.034 -38.0958 125.939 -55.1334 127.897 -63.3435C128.665 -66.5905 129.867 -68.6276 131.664 -69.6152C130.524 -60.8866 132.445 -51.6394 138.183 -45.096C141.232 -42.812 146.635 -37.7255 151.79 -36.4662C152.757 -23.6633 157.082 -15.8977 157.082 -15.8977C156.475 9.95488 132.346 -1.601 127.897 -4.34181C123.448 -7.07029 122.58 -18.0212 123.807 -28.0585Z" fill="#F0A689"/>
<path d="M148.395 22.6591C148.395 22.6591 129.645 0.460941 113.72 2.9178L92.3923 22.6591L74.1501 35.8323C71.1387 23.1036 69.0938 12.4366 69.4037 8.02905C70.4075 -6.5516 80.9538 -23.1694 96.4324 -28.688C105.206 -31.8116 123.796 -28.0584 123.796 -28.0584C122.631 -15.4407 133.747 -1.53912 148.395 -4.77378C157.987 -6.89729 157.839 -13.774 156.587 -18.2556C157.616 -16.058 159.264 -12.8975 161.891 -8.564C163.552 -5.82319 166.675 -1.72431 170.355 2.97953C168.806 3.57214 153.563 9.83156 148.395 22.6591Z" fill="#2B478B"/>
<path d="M187.507 65.5739C225.566 116.588 227.375 160.367 201.635 198.849C175.895 237.332 127.898 245.875 127.898 245.875L123.3 292.901H27.9624C27.9624 292.901 55.2018 157.243 61.7576 131.094C68.3134 104.945 93.1238 105.563 93.1238 105.563C93.1238 105.563 81.0904 65.1912 74.1504 35.8324L92.3927 22.6591L113.721 2.91787C129.645 0.473352 148.396 22.6591 148.396 22.6591C153.564 9.83163 168.807 3.5722 170.356 2.96724C179.997 15.2762 193.468 31.6594 194.571 38.2522C196.083 47.3759 187.507 65.5739 187.507 65.5739Z" fill="#4F618E"/>
<path d="M46.2406 292.889L76.1445 117.464" stroke="#4F618E" stroke-miterlimit="10"/>
<path d="M224.649 83.9817C224.649 83.9817 191.759 56.5612 185.55 51.524C179.341 46.4868 176.875 46.03 176.875 46.03L154.122 55.6476C154.122 55.6476 134.529 63.9811 136.784 68.4751C137.838 70.5739 153.725 65.0182 153.725 65.0182C153.725 65.0182 165.882 75.8086 167.556 76.7222C169.229 77.6358 192.217 81.3026 192.217 81.3026L213.458 113.205C213.458 113.192 227.685 108.192 224.649 83.9817Z" fill="#FFB27D"/>
<path d="M167.555 76.6976C167.555 76.6976 152.299 77.6853 148.457 76.6976C144.628 75.71 141.071 73.4877 140.191 71.9444C139.311 70.4012 141.071 68.611 141.071 68.611L153.749 62.9812L167.555 76.6976Z" fill="#FFB27D"/>
<path d="M178.746 46.8079C178.746 46.8079 171.905 42.0177 167.568 42.8819C163.218 43.7461 154.171 42.4621 154.283 44.7955C154.394 47.1289 155.72 48.9438 161.904 50.4623C168.088 51.9809 173.665 56.2156 173.615 57.1292C173.554 58.0428 178.746 46.8079 178.746 46.8079Z" fill="#FFB27D"/>
<path d="M102.232 35.8198C102.232 35.8198 91.3266 79.1544 92.1569 84.994C92.9996 90.8337 140.191 144.206 140.191 144.206L124.291 163.391C124.291 163.391 72.0681 128.415 60.3445 115.254C48.6209 102.093 52.3884 35.7951 58.2502 22.6589C64.112 9.52276 74.0634 -26.5153 99.1712 -29.5154C124.291 -32.5154 102.232 35.8198 102.232 35.8198Z" fill="#FFB27D"/>
<path d="M99.1715 -29.5154C124.279 -32.5154 102.22 35.8198 102.22 35.8198C102.22 35.8198 101.291 39.4866 100.014 44.82C86.3077 37.4989 63.2819 27.585 48.6831 21.7824C63.8024 -4.65047 74.0636 -26.5153 99.1715 -29.5154Z" fill="#2B478B"/>
<path d="M57.3086 25.2887L56.0445 30.5605C56.0445 30.5605 48.8815 25.9554 48.6832 21.7825L57.3086 25.2887Z" fill="#213360"/>
<path d="M140.191 144.206L164.01 145.527L170.355 169.577C170.355 169.577 152.411 171.935 146.313 171.602C140.216 171.268 124.279 163.391 124.279 163.391C124.279 163.391 125.493 143.033 140.191 144.206Z" fill="#FFB27D"/>
<path d="M140.192 144.206C140.192 144.206 150.676 135.477 153.75 134.131C156.823 132.786 161.57 129.748 163.602 131.773C165.635 133.798 159.723 136.835 157.096 139.539C154.456 142.243 155.212 153.712 149.747 154.058C144.294 154.379 139.151 154.959 140.192 144.206Z" fill="#FFB27D"/>
<path d="M167.555 155.724C167.555 155.724 180.84 150.193 186.628 146.28C189.899 144.07 190.692 139.193 186.628 139.872C182.563 140.551 174.966 145.946 164.011 145.527C156.513 145.23 164.754 152.687 167.555 155.724Z" fill="#FFB27D"/>
<path d="M170.354 169.564C170.354 169.564 185.275 162.07 186.626 157.885C187.976 153.7 186.626 152.008 186.626 152.008C186.626 152.008 190.641 148.44 188.633 144.144C186.626 139.86 165.446 154.366 164.009 155.712C162.583 157.083 163.228 166.861 170.354 169.564Z" fill="#FFB27D"/>
<path d="M119.543 5.01653C119.543 5.01653 116.569 -25.8238 109.43 -29.9351H102.999C102.999 -29.9351 118.006 -12.2309 113.718 7.60919C109.43 27.4493 119.543 5.01653 119.543 5.01653Z" fill="#4F618E"/>
<path d="M172.413 5.57208C172.413 5.57208 165.374 -5.41587 164.346 -20.6632L158.633 -21.9102C158.633 -21.9102 163.317 -0.78611 169.179 5.55975C175.028 11.9303 172.413 5.57208 172.413 5.57208Z" fill="#4F618E"/>
</g>
</g>
<defs>
<clipPath id="clip0_1_14087">
<rect width="377.225" height="442" fill="white" transform="matrix(-1 0 0 1 328.066 -149)"/>
</clipPath>
</defs>
</svg>
