<svg width="348" height="212" viewBox="0 0 348 212" fill="none" xmlns="http://www.w3.org/2000/svg">
<mask id="mask0_1_14383" style="mask-type:alpha" maskUnits="userSpaceOnUse" x="0" y="0" width="348" height="212">
<rect width="348" height="212" rx="16" fill="#62A9E2"/>
</mask>
<g mask="url(#mask0_1_14383)">
<path d="M312.928 182.503L313.028 181.951C313.473 181.824 313.918 181.697 314.363 181.548C315.286 181.251 315.408 180.222 314.652 179.68C314.307 179.436 313.951 179.203 313.595 178.98C313.729 178.28 313.862 177.59 313.996 176.89C314.074 176.508 313.951 176.126 313.584 175.924C313.261 175.733 312.772 175.765 312.494 176.041C311.982 176.561 311.459 177.081 310.936 177.601C310.313 177.335 309.679 177.091 309.023 176.879C308.634 176.752 308.155 176.932 307.911 177.229C307.632 177.569 307.621 177.961 307.799 178.354C308.066 178.927 308.333 179.5 308.6 180.063C308.367 180.338 308.133 180.614 307.911 180.89C307.877 180.901 307.855 180.922 307.822 180.933C307.51 181.092 307.321 181.4 307.276 181.718C307.243 181.771 307.21 181.813 307.165 181.867C307.01 182.089 307.099 182.387 307.299 182.546C307.421 182.641 307.566 182.673 307.699 182.652C307.944 182.822 308.255 182.875 308.6 182.832C309.001 182.779 309.401 182.715 309.802 182.652C310.102 183.299 310.402 183.957 310.703 184.604C311.059 185.358 312.483 185.241 312.627 184.392C312.75 183.766 312.816 183.14 312.928 182.503Z" fill="#F5B452"/>
<path d="M95.2406 23.7882L94.8179 23.4062C94.9514 22.9817 95.0849 22.5572 95.2072 22.1222C95.452 21.2202 94.6176 20.5623 93.7277 20.87C93.3272 21.008 92.9267 21.1565 92.5262 21.3263C91.9923 20.8382 91.4472 20.35 90.9132 19.8513C90.624 19.586 90.2235 19.4693 89.8452 19.6391C89.5004 19.7982 89.2557 20.2015 89.3558 20.5729C89.5338 21.2733 89.7006 21.9736 89.8675 22.674C89.289 23.0242 88.7217 23.3956 88.1877 23.7988C87.8651 24.0429 87.7538 24.5204 87.8873 24.8812C88.032 25.2844 88.3657 25.5073 88.8107 25.5815C89.4559 25.6877 90.1011 25.7832 90.7463 25.8893C90.8576 26.2288 90.9688 26.5578 91.0912 26.8974C91.0912 26.9292 91.0912 26.961 91.0801 26.9929C91.0467 27.3324 91.2136 27.6508 91.4694 27.8524C91.4917 27.9055 91.5139 27.9585 91.5362 28.0116C91.6474 28.2557 91.9589 28.3618 92.2036 28.2769C92.3594 28.2344 92.4595 28.1389 92.5151 28.0222C92.7932 27.9161 93.0157 27.6932 93.1603 27.4067C93.3383 27.0565 93.5052 26.7064 93.6609 26.3562C94.3952 26.4729 95.1294 26.5896 95.8636 26.7064C96.7202 26.8337 97.3988 25.6346 96.7313 25.0616C96.2418 24.6159 95.7301 24.2339 95.2406 23.7882Z" fill="#F5B452"/>
<path d="M14.6789 86.0773L14.5454 85.6635C14.8013 85.43 15.0572 85.186 15.313 84.9419C15.8359 84.4219 15.5355 83.6898 14.8236 83.573C14.5009 83.52 14.1672 83.4775 13.8446 83.4457C13.6777 82.9257 13.5109 82.4058 13.344 81.8858C13.255 81.5993 13.0325 81.3765 12.7099 81.3659C12.4207 81.3446 12.0981 81.5356 12.0091 81.8115C11.8533 82.3421 11.6865 82.8727 11.5196 83.4032C10.9967 83.4245 10.4739 83.4775 9.95105 83.5518C9.63957 83.5943 9.37258 83.8808 9.31696 84.1673C9.25021 84.4962 9.39483 84.7615 9.66182 84.9737C10.0512 85.2708 10.4517 85.5786 10.841 85.8757C10.7854 86.141 10.7298 86.4063 10.6741 86.6715C10.663 86.6928 10.6519 86.714 10.6296 86.7352C10.4739 86.9474 10.4628 87.2233 10.5518 87.4568C10.5406 87.4992 10.5406 87.5417 10.5295 87.5947C10.5073 87.7963 10.6741 87.9768 10.8744 88.0192C10.9967 88.0404 11.0969 88.0192 11.1859 87.9555C11.4195 87.9873 11.6531 87.9237 11.8645 87.7751C12.1203 87.6053 12.3651 87.425 12.6209 87.2552C13.0659 87.5947 13.5109 87.9449 13.9558 88.2845C14.4787 88.6771 15.4131 88.1147 15.1907 87.4886C15.0127 86.9899 14.8236 86.5442 14.6789 86.0773Z" fill="#F5B452"/>
<path d="M166.682 104.796L166.782 104.244C167.227 104.117 167.672 103.979 168.117 103.819C169.04 103.501 169.14 102.482 168.373 101.952C168.028 101.708 167.672 101.485 167.305 101.262C167.427 100.562 167.55 99.8614 167.672 99.1611C167.739 98.7791 167.616 98.397 167.249 98.1954C166.916 98.015 166.426 98.0469 166.17 98.3334C165.67 98.8639 165.147 99.3945 164.635 99.9145C164.001 99.6598 163.367 99.4264 162.71 99.2247C162.31 99.108 161.843 99.2884 161.609 99.5961C161.342 99.9463 161.331 100.328 161.52 100.721C161.798 101.283 162.076 101.856 162.343 102.419C162.11 102.695 161.887 102.971 161.665 103.257C161.631 103.268 161.609 103.289 161.576 103.299C161.264 103.459 161.075 103.766 161.053 104.095C161.02 104.148 160.986 104.191 160.953 104.244C160.808 104.467 160.886 104.774 161.097 104.923C161.22 105.019 161.364 105.04 161.498 105.019C161.743 105.178 162.065 105.231 162.399 105.188C162.799 105.135 163.2 105.061 163.589 104.987C163.901 105.634 164.212 106.281 164.524 106.918C164.891 107.661 166.315 107.523 166.437 106.674C166.526 106.058 166.571 105.432 166.682 104.796Z" fill="#F5B452"/>
<path d="M278.609 19.1828L278.075 18.9706C278.041 18.5249 278.008 18.0792 277.953 17.6442C277.841 16.721 276.818 16.392 276.106 16.9757C275.783 17.2409 275.461 17.5168 275.16 17.8033C274.471 17.5274 273.792 17.2515 273.102 16.9757C272.735 16.8271 272.312 16.8483 272.023 17.1454C271.767 17.4107 271.689 17.8776 271.912 18.1853C272.335 18.7796 272.757 19.3738 273.18 19.968C272.768 20.488 272.39 21.0398 272.034 21.5916C271.823 21.9311 271.901 22.4086 272.157 22.7057C272.446 23.0347 272.846 23.1302 273.28 23.0453C273.925 22.918 274.56 22.7906 275.205 22.6739C275.427 22.9498 275.661 23.2257 275.906 23.491C275.917 23.5228 275.928 23.5546 275.939 23.5759C276.028 23.9048 276.306 24.1489 276.629 24.2444C276.673 24.2868 276.707 24.3293 276.751 24.3717C276.94 24.5627 277.274 24.5521 277.474 24.3929C277.597 24.2974 277.652 24.1701 277.663 24.0428C277.886 23.8518 278.008 23.5653 278.041 23.2469C278.075 22.8649 278.097 22.4829 278.119 22.0903C278.854 21.9523 279.577 21.8144 280.311 21.6658C281.156 21.4961 281.345 20.1378 280.5 19.8301C279.855 19.6179 279.232 19.4269 278.609 19.1828Z" fill="#F5B452"/>
<path d="M149.038 21.7728C149.005 21.6878 148.972 21.6029 148.938 21.5179L148.838 21.2844C148.771 21.1676 148.682 21.072 148.571 21.0083C148.504 20.9446 148.426 20.9021 148.337 20.8809C148.215 20.8172 148.082 20.7853 147.937 20.796C147.848 20.8066 147.748 20.8172 147.659 20.8278C147.581 20.8597 147.492 20.8915 147.414 20.9234C147.292 20.9871 147.192 21.072 147.125 21.1782C147.036 21.2737 146.969 21.3905 146.936 21.5179C146.902 21.6029 146.869 21.6878 146.836 21.7728C146.824 21.794 146.824 21.8152 146.813 21.8365C146.78 21.9108 146.78 21.9426 146.769 22.0382C146.735 22.1868 146.735 22.3355 146.791 22.4947C146.813 22.6009 146.858 22.6965 146.913 22.7814C146.98 22.8663 147.047 22.9619 147.125 23.0468C147.225 23.153 147.347 23.2273 147.492 23.2698C147.625 23.3335 147.781 23.3654 147.937 23.3654C148.037 23.3547 148.137 23.3441 148.237 23.3229C148.438 23.2698 148.604 23.1742 148.749 23.0362C148.827 22.9513 148.894 22.8663 148.96 22.7708C149.027 22.6752 149.061 22.5797 149.083 22.4841C149.094 22.3886 149.116 22.2824 149.127 22.1868C149.127 22.017 149.094 21.9108 149.038 21.7728Z" fill="white"/>
<path d="M19.7193 36.1398C19.7304 36.0762 19.7415 36.0125 19.7415 35.9488C19.7415 35.6199 19.6525 35.3121 19.4857 35.0256C19.1408 34.4738 18.5067 34.1236 17.8392 34.1236H17.8281C17.5722 34.113 17.3275 34.1661 17.0939 34.2828C16.8602 34.3571 16.66 34.4844 16.482 34.6542L16.1816 35.015C16.0148 35.3015 15.9258 35.5986 15.9258 35.9276V35.9382C15.9258 36.5749 16.2929 37.1904 16.8714 37.5087C17.1717 37.6785 17.4944 37.7528 17.8392 37.7528C17.906 37.7528 17.9616 37.7315 18.0283 37.7315C18.4956 37.827 18.9962 37.6997 19.341 37.3707C19.6748 37.0524 19.8083 36.5855 19.7193 36.1398Z" fill="white"/>
<path d="M38.2508 18.4294C37.6612 18.4294 37.6612 19.301 38.2508 19.301C38.8292 19.301 38.8292 18.4294 38.2508 18.4294Z" fill="white"/>
<path d="M42.3791 131.42C42.3124 131.293 42.2123 131.197 42.0899 131.123C41.9787 131.027 41.8563 130.963 41.7006 130.932C41.6004 130.921 41.5003 130.91 41.4002 130.889C41.2 130.889 41.0108 130.942 40.8328 131.038C40.755 131.091 40.6771 131.155 40.5992 131.208C40.4546 131.346 40.3656 131.505 40.31 131.685C40.2989 131.728 40.2989 131.77 40.2877 131.813C40.2432 131.951 40.2321 132.1 40.2655 132.238C40.2766 132.386 40.3211 132.514 40.399 132.641C40.4657 132.768 40.5659 132.864 40.6882 132.949C40.7995 133.044 40.9218 133.108 41.0776 133.14C41.1777 133.151 41.2778 133.161 41.3779 133.182C41.5782 133.182 41.7673 133.129 41.9453 133.034C42.0232 132.981 42.101 132.917 42.1789 132.864C42.3235 132.726 42.4125 132.567 42.4681 132.386L42.4904 132.259C42.5349 132.121 42.546 131.972 42.5126 131.834C42.5126 131.675 42.4681 131.547 42.3791 131.42Z" fill="white"/>
<path d="M148.461 123.07C148.45 122.9 148.405 122.74 148.305 122.602C148.294 122.592 148.294 122.581 148.283 122.56C148.227 122.464 148.161 122.379 148.072 122.294C147.983 122.231 147.894 122.156 147.805 122.093C147.693 122.05 147.593 122.008 147.482 121.965H147.471C147.449 121.965 147.415 121.955 147.393 121.955C147.337 121.944 147.282 121.933 147.226 121.933C147.015 121.88 146.815 121.88 146.603 121.933C146.403 121.986 146.236 122.082 146.08 122.22C145.936 122.358 145.836 122.528 145.78 122.719C145.724 122.921 145.724 123.112 145.78 123.314C145.791 123.367 145.802 123.42 145.802 123.473C145.802 123.494 145.813 123.526 145.813 123.547C145.824 123.611 145.836 123.611 145.88 123.717C145.936 123.877 146.025 124.015 146.158 124.131C146.247 124.195 146.336 124.269 146.425 124.333C146.436 124.344 146.459 124.344 146.47 124.354C146.581 124.397 146.681 124.439 146.792 124.482C146.97 124.535 147.148 124.545 147.326 124.503C147.449 124.503 147.56 124.471 147.66 124.418C147.827 124.365 147.972 124.28 148.083 124.153C148.149 124.068 148.216 123.983 148.294 123.898C148.339 123.802 148.383 123.696 148.428 123.59C148.494 123.409 148.505 123.239 148.461 123.07Z" fill="white"/>
<path d="M302.882 92.4979C302.882 92.3918 302.849 92.2962 302.804 92.2006C302.76 92.052 302.671 91.9352 302.548 91.829C302.47 91.7653 302.381 91.7122 302.303 91.6485C302.203 91.6061 302.114 91.5742 302.014 91.5317C301.847 91.4787 301.692 91.4787 301.525 91.5105C301.358 91.5211 301.213 91.5636 301.069 91.6485C301.002 91.691 300.924 91.7441 300.857 91.7866C300.668 91.8927 300.512 92.0414 300.401 92.2219C300.29 92.413 300.234 92.6147 300.234 92.8271C300.245 92.9333 300.268 93.0394 300.279 93.1456C300.334 93.3473 300.446 93.5278 300.601 93.6765C300.713 93.7933 300.846 93.8782 301.002 93.9207C301.158 93.995 301.313 94.0269 301.491 94.0269C301.714 94.0269 301.936 93.9738 302.126 93.8676C302.315 93.7614 302.47 93.6128 302.582 93.4323C302.626 93.3686 302.682 93.2942 302.726 93.2305C302.771 93.135 302.804 93.05 302.849 92.9545C302.904 92.8058 302.915 92.6572 302.882 92.4979Z" fill="white"/>
<path d="M317.899 147.942C317.855 147.857 317.788 147.793 317.699 147.74C317.621 147.676 317.543 147.634 317.443 147.613C317.232 147.57 316.998 147.581 316.787 147.581C316.72 147.591 316.653 147.602 316.586 147.602C316.486 147.623 316.397 147.666 316.33 147.729C316.275 147.761 316.23 147.804 316.197 147.857C316.13 147.931 316.086 148.006 316.063 148.101C316.052 148.144 316.041 148.186 316.041 148.218C316.03 148.239 316.008 148.271 316.008 148.292C316.008 148.324 316.03 148.345 316.041 148.367H316.03C316.041 148.409 316.052 148.452 316.052 148.484C316.075 148.537 316.108 148.6 316.13 148.653C316.175 148.738 316.241 148.802 316.33 148.855C316.375 148.898 316.431 148.93 316.497 148.951C316.586 148.993 316.686 149.015 316.787 149.015C317.009 149.015 317.232 149.036 317.443 148.983C317.499 148.961 317.565 148.93 317.621 148.908C317.71 148.866 317.777 148.802 317.832 148.717C317.877 148.675 317.91 148.622 317.932 148.558C317.977 148.473 317.999 148.377 317.999 148.282C317.999 148.186 317.966 148.059 317.899 147.942Z" fill="white"/>
<path d="M301.323 201.7C301.279 201.615 301.245 201.519 301.201 201.434C301.145 201.36 301.079 201.286 301.023 201.212C300.912 201.105 300.789 201.02 300.645 200.978C300.556 200.925 300.456 200.904 300.344 200.904C300.189 200.872 300.033 200.872 299.877 200.925C299.788 200.967 299.688 200.999 299.599 201.042C299.521 201.095 299.443 201.158 299.365 201.212C299.254 201.318 299.165 201.434 299.121 201.573C299.065 201.657 299.043 201.753 299.043 201.859C299.009 202.008 299.021 202.156 299.065 202.305C299.11 202.39 299.143 202.486 299.187 202.571C299.243 202.645 299.31 202.719 299.365 202.794C299.454 202.879 299.555 202.942 299.655 202.985C299.666 202.985 299.666 202.995 299.677 202.995L299.688 203.006C299.71 203.017 299.733 203.017 299.755 203.027C299.799 203.048 299.833 203.07 299.888 203.08C299.899 203.08 299.899 203.08 299.911 203.091C299.866 203.07 299.822 203.059 299.777 203.038C299.866 203.08 299.955 203.123 300.055 203.123C300.189 203.155 300.322 203.144 300.456 203.101C300.467 203.101 300.467 203.101 300.478 203.101C300.567 203.07 300.667 203.027 300.756 202.995C300.767 202.995 300.767 202.985 300.778 202.985C300.867 202.932 300.956 202.868 301.034 202.804C301.145 202.698 301.234 202.581 301.279 202.443C301.334 202.358 301.357 202.263 301.357 202.156C301.379 201.997 301.379 201.849 301.323 201.7Z" fill="white"/>
<path d="M72.7814 142.817C72.7814 142.817 52.6016 149.863 45.4596 156.993C39.4413 163 31.1758 203.386 31.1758 212.47C31.1758 221.553 46.4831 223.824 47.1617 224.8C47.8403 225.777 66.8854 237.449 68.5874 236.802C70.2895 236.155 132.186 236.473 132.531 234.202C132.876 231.931 134.567 220.895 134.567 220.895C134.567 220.895 144.379 223.092 145.591 214.369C146.815 205.647 138.305 165.737 132.52 158.606C126.735 151.465 103.607 144.981 103.607 144.981C103.607 144.981 85.5857 142.382 84.8959 141.416C84.2285 140.45 72.7814 142.817 72.7814 142.817Z" fill="#2B478B"/>
<path d="M76.7416 128.438L72.7812 142.806C72.7812 142.806 87.9662 153.089 103.618 144.982L100.893 130.062L76.7416 128.438Z" fill="#F0A482"/>
<path d="M120.806 91.6908C120.962 95.0334 122.319 101.846 118.581 105.74C114.843 109.635 109.403 95.3624 108.38 92.4336C107.357 89.5049 105.654 81.4084 108.035 80.7505C110.416 80.1032 120.806 91.6908 120.806 91.6908Z" fill="#5F3831"/>
<path d="M65.7934 191.565C65.7934 191.565 64.2916 188.658 66.8502 183.787C69.4089 178.906 67.5956 173.335 69.1307 169.186C70.6659 165.037 74.0033 168.379 73.892 170.088C73.7808 171.807 74.0923 175.998 74.0923 175.998C74.0923 175.998 76.9846 168.04 78.0748 164.496C79.165 160.951 81.8905 157.938 83.5926 160.665C83.5926 160.665 87.564 158.574 88.3539 161.758C88.3539 161.758 90.7679 161.259 90.8569 164.687C90.8569 164.687 93.2153 165.716 92.2919 169.685C91.3575 173.653 89.3662 179.691 85.1611 185.665C80.9672 191.64 80.2775 194.473 75.405 196.606C70.5436 198.76 66.5054 193.868 65.7934 191.565Z" fill="#FFB27D"/>
<path d="M54.48 92.6457C54.48 92.6457 52.5221 120.065 73.0356 126.942C93.4602 133.786 96.5751 93.155 94.9175 92.3273C93.2711 91.5103 88.532 80.4108 86.1069 80.0075C83.6929 79.5937 72.8243 77.6306 70.2434 79.3178C67.6625 80.9944 54.48 92.6457 54.48 92.6457Z" fill="#5F3831"/>
<path d="M63.9701 183.596C66.3284 179.808 79.8002 189.751 82.1808 193.327C84.5615 196.892 73.0031 216.683 61.0888 225.766C49.1856 234.849 28.7833 229.013 31.1639 212.459C31.1639 212.47 55.382 197.391 63.9701 183.596Z" fill="#2B478B"/>
<path d="M121.295 191.565C121.295 191.565 122.797 188.658 120.238 183.787C117.679 178.917 119.493 173.335 117.958 169.186C116.422 165.037 113.085 168.379 113.196 170.088C113.308 171.807 112.996 175.998 112.996 175.998C112.996 175.998 110.104 168.04 109.013 164.496C107.923 160.951 105.198 157.938 103.496 160.665C103.496 160.665 99.5243 158.574 98.7345 161.758C98.7345 161.758 96.3204 161.259 96.2315 164.687C96.2315 164.687 93.8731 165.716 94.7964 169.685C95.7309 173.653 97.7221 179.691 101.927 185.665C106.121 191.64 106.811 194.473 111.683 196.606C116.534 198.76 120.572 193.868 121.295 191.565Z" fill="#FFB27D"/>
<path d="M122.007 183.161C120.494 179.214 108.568 188.085 106.276 191.459C103.985 194.834 111.305 215.399 120.004 225.342C128.703 235.284 145.813 231.019 145.579 214.38C145.59 214.38 127.535 197.529 122.007 183.161Z" fill="#2B478B"/>
<path d="M89.7677 140.121C94.5958 140.111 98.7118 138.562 101.96 135.941L100.903 130.157L100.67 130.041L76.741 128.438L74.3047 137.256C78.8435 139.464 84.9508 140.132 89.7677 140.121Z" fill="#F08964"/>
<path d="M78.5971 86.5017C78.5971 86.5017 68.2736 92.9853 66.16 101.008C66.16 101.008 58.5842 98.5775 58.8178 107.014C59.0069 113.805 66.0821 114.091 66.0821 114.091C66.0821 114.091 69.108 136.789 93.3927 136.238C113.65 135.781 120.514 116.702 118.901 100.222C118.901 100.222 114.485 95.0333 109.723 83.3501C106.965 76.5906 90.1332 80.103 88.1642 80.1879C86.2063 80.2728 78.5971 86.5017 78.5971 86.5017Z" fill="#FFB27D"/>
<path d="M54.3127 93.1342C54.3127 93.1342 89.01 81.886 120.804 91.691C120.804 91.691 127.89 52.2589 88.0533 54.2539C44.3897 56.4292 54.3127 93.1342 54.3127 93.1342Z" fill="white"/>
<path d="M67.1514 107.501C66.8733 106.451 66.2504 105.453 65.4272 104.711C64.4927 103.883 62.6905 102.779 61.7227 104.159C61.1887 104.912 62.2122 105.697 62.9353 105.315C63.1021 105.4 63.4248 105.538 63.4804 105.57C63.5694 105.623 63.6584 105.676 63.7362 105.74C63.7585 105.761 63.9142 105.878 63.9253 105.899C64.0811 106.037 64.2257 106.175 64.3703 106.334C64.4037 106.377 64.4371 106.419 64.4704 106.451C64.4816 106.462 64.4816 106.462 64.4927 106.483C64.5594 106.578 64.6262 106.674 64.6929 106.769C64.8153 106.95 64.9154 107.141 65.0044 107.332C63.9921 107.809 63.3135 108.764 63.6027 109.91C63.7585 110.494 64.2035 111.035 64.8153 111.226C65.4494 111.428 66.1614 111.237 66.6175 110.791C67.4963 109.932 67.4407 108.563 67.1514 107.501Z" fill="#F08964"/>
<path d="M82.7718 161.525C82.5716 161.302 82.2156 161.451 82.1377 161.684C81.9931 162.087 81.982 162.533 81.9264 162.957C81.8596 163.414 81.7706 163.849 81.6483 164.294C81.4035 165.133 81.0587 165.939 80.6693 166.735C80.2688 167.584 79.8572 168.433 79.4456 169.282C79.2454 169.706 79.034 170.131 78.8338 170.555C78.6002 171.043 78.3665 171.468 78.4778 172.019C78.5557 172.412 79.0785 172.571 79.4122 172.38C79.9017 172.104 80.0797 171.616 80.3022 171.139L80.9919 169.664C81.4258 168.73 81.8707 167.807 82.2935 166.873C82.6828 165.992 83.0722 165.09 83.2279 164.135C83.3503 163.265 83.417 162.225 82.7718 161.525Z" fill="#F08964"/>
<path d="M86.4083 162.459C86.3861 162.427 86.3416 162.437 86.3082 162.459C85.5072 163.116 85.4294 164.209 85.1957 165.143C84.951 166.13 84.6395 167.106 84.2724 168.061C83.9164 169.016 83.4715 169.94 82.9709 170.831C82.715 171.277 82.448 171.712 82.1699 172.147C81.914 172.55 81.5358 173.006 81.5914 173.494C81.6471 173.887 81.9474 174.163 82.3813 174.067C82.9264 173.951 83.249 173.441 83.5382 173.017C83.8386 172.561 84.1167 172.094 84.3837 171.616C84.9288 170.629 85.396 169.6 85.7965 168.56C86.1858 167.541 86.4639 166.491 86.6642 165.43C86.8755 164.453 87.1314 163.286 86.4083 162.459Z" fill="#F08964"/>
<path d="M90.4018 166.088C90.3462 165.854 90.1905 165.674 90.0904 165.461C90.0792 165.43 90.0347 165.419 90.0125 165.44C89.5898 165.737 89.3228 165.886 89.0892 166.363C88.8444 166.862 88.6219 167.361 88.4328 167.87C88.0212 168.931 87.5429 169.961 87.0089 170.958C86.486 171.934 85.8964 172.879 85.2846 173.813C84.7173 174.683 83.983 175.702 83.8273 176.731C83.8051 176.858 83.9052 177.007 84.0609 176.954C85.0844 176.614 85.9409 175.67 86.5417 174.853C87.2648 173.876 87.8877 172.836 88.4551 171.765C89.0002 170.725 89.4785 169.653 89.9012 168.549C90.1126 167.998 90.2795 167.446 90.3796 166.873C90.3907 166.618 90.4575 166.353 90.4018 166.088Z" fill="#F08964"/>
<path d="M102.082 175.266C101.871 174.725 101.682 174.279 101.304 173.802C100.937 173.335 100.57 172.868 100.225 172.391C99.5572 171.457 98.9787 170.449 98.556 169.388C98.1221 168.305 97.8552 167.202 97.5548 166.087C97.3879 165.451 96.8651 164.368 96.0085 164.888C95.9306 164.931 95.964 165.058 96.053 165.058C96.3979 165.058 96.2755 165.971 96.2755 166.172C96.2644 166.703 96.3534 167.244 96.4535 167.764C96.6537 168.857 97.032 169.886 97.4992 170.905C97.9442 171.881 98.5004 172.804 99.1567 173.664C99.4905 174.099 99.8576 174.523 100.269 174.884C100.714 175.277 101.148 175.436 101.715 175.606C101.916 175.68 102.16 175.468 102.082 175.266Z" fill="#F08964"/>
<path d="M103.963 171.234C103.407 170.385 102.907 169.483 102.495 168.56C102.094 167.658 101.727 166.735 101.438 165.801C101.293 165.345 101.16 164.899 101.026 164.443C100.893 163.997 100.771 163.456 100.481 163.084C100.415 162.999 100.248 162.968 100.192 163.084C99.8028 163.912 100.048 165.079 100.226 165.939C100.437 166.989 100.737 168.019 101.16 169.005C101.572 169.971 102.039 170.905 102.595 171.796C103.129 172.656 103.752 173.611 104.82 173.908C104.953 173.95 105.12 173.844 105.109 173.696C105.042 172.762 104.464 171.998 103.963 171.234Z" fill="#F08964"/>
<path d="M106.499 166.279C106.076 165.377 105.642 164.464 105.197 163.573C104.975 163.127 104.752 162.681 104.508 162.246C104.252 161.779 103.907 161.355 103.662 160.888C103.607 160.771 103.395 160.856 103.44 160.973C103.607 161.471 103.662 162.013 103.829 162.511C103.996 163.01 104.174 163.52 104.374 164.018C104.73 164.92 105.108 165.822 105.509 166.703C106.332 168.528 107.089 170.449 108.49 171.956C108.59 172.062 108.724 171.945 108.713 171.839C108.368 169.865 107.333 168.082 106.499 166.279Z" fill="#F08964"/>
<path d="M103.807 144.313C103.64 144.313 103.474 144.313 103.296 144.313C102.94 144.313 102.695 144.461 102.539 144.674C99.6134 145.65 96.5987 146.255 93.5394 146.488C93.5283 146.446 93.5172 146.393 93.5061 146.35C93.4727 146.255 93.3281 146.255 93.3058 146.35C93.2947 146.403 93.2836 146.456 93.2724 146.509C90.914 146.669 88.5445 146.615 86.175 146.308C83.2715 145.926 80.4125 145.151 77.7092 144.069C76.3966 143.538 75.0839 142.626 73.7378 142.233C73.5932 142.19 72.592 141.968 72.5697 142.339C72.4918 143.358 73.8045 143.856 74.5833 144.281C75.807 144.96 77.1308 145.512 78.4435 146.011C81.1578 147.051 84.0391 147.73 86.9426 148.122C88.945 148.388 90.9585 148.483 92.9832 148.419C92.872 149.926 92.9943 151.486 93.0055 152.972C93.0166 155.434 93.0277 157.885 93.0611 160.347C93.1167 165.09 93.2613 169.833 93.3837 174.566C93.6173 184.137 93.7619 193.709 93.8954 203.281C93.9733 208.714 93.8843 214.189 94.2736 219.612C94.3626 220.864 96.3094 220.896 96.3428 219.612C96.5542 210.051 95.6086 200.458 95.3527 190.897C95.0969 181.325 94.9077 171.754 94.574 162.182C94.485 159.551 94.3626 156.909 94.2403 154.277C94.1513 152.377 94.2514 150.319 93.9844 148.366C97.4441 148.175 100.882 147.507 104.119 146.318C105.153 145.926 105.087 144.302 103.807 144.313Z" fill="#596FA4"/>
<path d="M82.7944 191.884C82.7832 191.863 82.7721 191.852 82.7387 191.82C82.6497 191.725 82.5719 191.629 82.4829 191.534C82.3716 191.407 82.2493 191.279 82.138 191.162C81.8154 190.823 81.4928 190.483 81.1591 190.165C80.5138 189.539 79.8464 188.945 79.1455 188.382C77.7772 187.279 76.331 186.271 74.7958 185.39C73.2718 184.509 71.6699 183.777 70.0012 183.161C69.6897 183.045 67.2201 182.153 66.4191 182.461C66.1632 182.09 65.5625 181.973 65.1843 182.472C64.2165 183.745 63.6269 185.284 62.8926 186.684C62.125 188.149 61.3352 189.613 60.5231 191.056C60.0003 191.99 59.4329 192.903 58.8878 193.826C58.9657 193.062 59.0547 192.298 59.1548 191.555C59.4552 189.38 59.7555 187.204 60.0003 185.018C60.245 182.843 60.4897 180.668 60.7456 178.482C60.779 178.227 61.4465 174.333 60.4453 174.715C59.8 174.959 59.7555 175.436 59.6109 176.052C59.3773 177.081 59.2438 178.142 59.0547 179.182C58.6876 181.273 58.3205 183.352 57.9422 185.443C57.564 187.533 57.2636 189.634 56.941 191.725C56.7853 192.775 56.6295 193.826 56.4738 194.876C56.3403 195.757 56.3292 196.733 55.9955 197.572C55.8953 197.826 55.9398 198.07 56.0733 198.261C55.8397 198.612 55.6283 198.962 55.3947 199.312C53.5258 202.071 51.5457 204.756 49.432 207.334C48.4197 208.565 47.3851 209.775 46.3505 210.974C45.772 211.632 45.1936 212.29 44.604 212.948C44.2146 213.372 43.7919 214.168 43.3469 214.486H43.358C43.269 214.529 43.1912 214.603 43.1689 214.709C42.9576 215.505 43.981 215.707 44.5595 215.473C45.3604 215.165 45.9389 214.317 46.4729 213.722C47.1181 213.011 47.7522 212.3 48.3752 211.579C50.8226 208.756 53.092 205.764 55.2501 202.74C59.5998 196.617 63.3599 190.123 66.3969 183.31C66.6638 183.586 67.0866 183.766 67.4092 183.904C68.2324 184.265 69.0667 184.615 69.8899 184.997C71.4919 185.74 73.0493 186.6 74.5177 187.555C75.9639 188.488 77.31 189.539 78.567 190.685C79.2345 191.29 79.8686 191.905 80.4805 192.553C80.7586 192.85 81.0144 193.179 81.3148 193.444C79.9687 195.269 79.19 197.752 78.3001 199.779C77.3656 201.912 76.4645 204.045 75.5634 206.188C73.739 210.539 72.0147 214.953 70.1347 219.261C70.0123 219.548 70.2126 220.004 70.5018 220.132C70.5463 220.153 70.6019 220.174 70.6464 220.195C71.1025 220.386 71.4696 220.333 71.859 220.047C72.5821 219.495 72.7712 218.519 73.0938 217.712C73.5388 216.587 73.9726 215.473 74.4287 214.359C75.3521 212.046 76.2976 209.732 77.2544 207.43C78.1777 205.201 79.1344 202.994 80.08 200.776C80.5583 199.673 81.0144 198.559 81.4928 197.455C81.9934 196.288 82.672 195.11 82.8611 193.858C83.8289 193.529 83.7956 192.107 82.7944 191.884Z" fill="#596FA4"/>
<path d="M90.9682 150.839C90.9348 150.701 90.8681 150.585 90.7791 150.489C90.7012 150.372 90.6011 150.287 90.4787 150.224C90.3229 150.149 90.1672 150.075 90.0003 150.085C89.9336 150.085 89.8557 150.085 89.789 150.107C89.6888 150.107 89.5999 150.128 89.5109 150.181C89.3774 150.224 89.2661 150.298 89.166 150.393C89.1104 150.468 89.0547 150.531 88.9991 150.606C88.9769 150.638 88.9546 150.669 88.9435 150.701L88.9324 150.723C88.899 150.808 88.8545 150.892 88.8211 150.977C88.8211 150.999 88.81 151.02 88.81 151.041C88.7989 151.084 88.7989 151.126 88.7878 151.169C88.7433 151.307 88.7321 151.455 88.7655 151.593C88.7766 151.731 88.8211 151.869 88.899 151.986C88.9657 152.113 89.0659 152.209 89.1882 152.283C89.2995 152.379 89.4219 152.443 89.5665 152.474C89.6666 152.485 89.7667 152.496 89.8668 152.517C90.0671 152.517 90.2562 152.464 90.4342 152.368C90.6789 152.22 90.8792 152.007 90.9459 151.731C90.9904 151.561 91.0461 151.381 91.0238 151.211C91.0016 151.084 91.0016 150.967 90.9682 150.839Z" fill="#596FA4"/>
<path d="M91.9043 185.156C91.8598 185.061 91.8265 184.965 91.782 184.88C91.7041 184.742 91.604 184.636 91.4705 184.551C91.3926 184.477 91.3036 184.424 91.2035 184.403C91.0589 184.328 90.9031 184.296 90.7251 184.296C90.6139 184.307 90.5027 184.328 90.4025 184.339C90.3024 184.381 90.2023 184.413 90.1133 184.456C89.9687 184.53 89.8574 184.626 89.7684 184.753C89.7239 184.806 89.7128 184.87 89.6794 184.923C89.6572 184.944 89.6461 184.965 89.6238 184.987C89.635 184.965 89.6461 184.944 89.6572 184.912C89.6349 184.965 89.6016 185.008 89.5682 185.05C89.5682 185.04 89.5793 185.04 89.5793 185.029C89.5126 185.114 89.4681 185.21 89.4236 185.358C89.3791 185.517 89.3791 185.677 89.4013 185.836C89.4013 185.847 89.4013 185.847 89.4013 185.857C89.4013 185.868 89.4125 185.868 89.4125 185.878C89.4236 185.931 89.4236 185.974 89.4347 186.027C89.4347 186.048 89.4458 186.059 89.4458 186.08C89.4347 186.038 89.4347 185.985 89.4236 185.942C89.4347 186.059 89.4458 186.176 89.5015 186.282C89.546 186.42 89.6238 186.537 89.7351 186.632C89.8129 186.685 89.8908 186.749 89.9687 186.802C90.1467 186.898 90.3469 186.951 90.5472 186.951C90.6584 186.94 90.8253 186.93 90.9476 186.887C91.07 186.845 91.1813 186.802 91.2925 186.749C91.3036 186.749 91.3036 186.738 91.3147 186.738C91.4037 186.675 91.4927 186.611 91.5817 186.547C91.7375 186.388 91.8487 186.208 91.9155 186.006C91.9377 185.91 91.96 185.751 91.96 185.655C91.96 185.645 91.96 185.634 91.96 185.624C91.96 185.602 91.96 185.581 91.96 185.56C91.96 185.443 91.9377 185.294 91.9043 185.156Z" fill="#596FA4"/>
<path d="M92.3136 202.209C92.258 202.029 92.1467 201.88 92.0021 201.753C91.8241 201.625 91.6684 201.509 91.4904 201.392C91.3235 201.286 91.1344 201.233 90.9342 201.222C90.7339 201.18 90.5337 201.19 90.3334 201.243C90.1443 201.286 89.9663 201.371 89.8217 201.498C89.6548 201.594 89.5325 201.732 89.4324 201.902C89.3767 202.018 89.3322 202.125 89.2766 202.241C89.2099 202.496 89.2099 202.751 89.2766 202.995C89.3322 203.112 89.3767 203.218 89.4324 203.335C89.5436 203.515 89.6993 203.664 89.8773 203.781C89.9218 203.823 89.9441 203.876 89.9997 203.908C90.0887 203.993 90.1888 204.046 90.3112 204.078C90.4224 204.142 90.5448 204.174 90.6672 204.174C90.7562 204.195 90.834 204.184 90.923 204.174H90.9342C90.9453 204.174 90.9453 204.174 90.9564 204.174C90.9898 204.174 91.0232 204.184 91.0565 204.174C91.0899 204.174 91.1233 204.163 91.1566 204.153C91.2011 204.142 91.2456 204.142 91.2901 204.131C91.3346 204.121 91.3903 204.099 91.4347 204.078C91.4681 204.068 91.5015 204.057 91.5237 204.046C91.5682 204.036 91.5905 204.004 91.6239 203.983C91.635 203.983 91.6461 203.972 91.6572 203.972C91.724 203.94 91.8019 203.919 91.8575 203.866C92.0243 203.77 92.1467 203.632 92.2468 203.462C92.3025 203.346 92.347 203.239 92.4026 203.123C92.4248 202.995 92.4359 202.868 92.4582 202.74C92.4582 202.56 92.4137 202.379 92.3136 202.209Z" fill="#596FA4"/>
<path d="M132.206 197.105C131.427 195.884 130.281 194.813 129.358 193.688C128.824 193.03 128.335 192.351 127.823 191.682C127.823 191.566 127.801 191.459 127.756 191.343C127.445 190.674 127.3 189.889 127.066 189.189C126.811 188.414 126.555 187.639 126.299 186.875C125.809 185.432 125.309 183.989 124.808 182.546C124.296 181.103 123.762 179.67 123.206 178.248C123.05 177.845 122.216 175.319 121.426 175.988C120.97 176.37 121.226 176.996 121.348 177.484C121.549 178.269 121.827 179.033 122.094 179.808C122.617 181.347 123.162 182.885 123.696 184.424C124.029 185.39 124.341 186.366 124.664 187.342C124.419 186.992 124.163 186.642 123.918 186.281C123.05 185.008 122.294 183.639 121.348 182.429C121.115 182.121 120.781 182.079 120.514 182.174C120.203 182.153 119.902 182.058 119.58 182.09C119.224 182.121 118.834 182.185 118.489 182.281C117.755 182.482 117.032 182.79 116.331 183.087C114.852 183.702 113.417 184.424 112.093 185.284C109.467 186.981 107.176 189.082 105.262 191.502C105.062 191.746 105.14 192.223 105.385 192.414C105.374 192.404 105.618 192.584 105.541 192.531C105.919 192.775 106.375 192.563 106.62 192.255C108.411 189.995 110.613 188.043 113.083 186.472C114.296 185.697 115.553 184.997 116.865 184.403C117.522 184.106 118.189 183.862 118.857 183.607C119.19 183.48 119.546 183.32 119.858 183.151C119.947 183.108 120.013 183.045 120.08 182.981C120.091 183.023 120.091 183.055 120.114 183.098C120.737 184.477 121.671 185.782 122.494 187.056C123.329 188.35 124.207 189.624 125.109 190.876C125.987 192.096 126.888 193.285 127.812 194.473C128.746 195.662 129.647 197.094 130.804 198.102C131.372 198.771 132.773 197.985 132.206 197.105Z" fill="#596FA4"/>
<path d="M116.178 219.993C116.1 218.847 115.422 217.839 114.943 216.799C114.354 215.515 113.786 214.221 113.252 212.926C112.296 210.623 111.45 208.289 110.616 205.944C109.793 203.598 109.014 201.243 108.335 198.855C107.968 197.582 107.623 196.308 107.267 195.035C107.023 194.154 106.911 193.199 106.121 192.637C106.032 192.573 105.899 192.626 105.843 192.7C105.332 193.518 105.665 194.515 105.832 195.406C106.066 196.712 106.355 197.996 106.678 199.28C107.29 201.763 107.979 204.235 108.78 206.676C109.581 209.116 110.505 211.515 111.483 213.892C111.962 215.038 112.462 216.184 112.974 217.319C113.464 218.401 113.842 219.717 114.743 220.556C115.355 221.118 116.122 220.577 116.133 219.972C116.156 219.983 116.167 219.993 116.178 219.993Z" fill="#596FA4"/>
<path d="M121.561 91.3301C120.638 89.8338 118.101 89.5367 116.466 89.091C114.352 88.518 112.194 88.051 110.036 87.6796C105.753 86.9368 101.415 86.5442 97.065 86.4381C88.0319 86.2152 79.0211 87.2339 70.1326 88.6877C64.8819 89.5473 59.6311 90.513 54.4471 91.6802C53.3013 91.9349 53.8019 93.5267 54.9255 93.3463C66.4059 91.4998 77.7307 89.1547 89.4114 88.6665C94.8513 88.4437 100.302 88.5816 105.709 89.2396C108.468 89.5791 111.204 90.0673 113.896 90.704C115.209 91.0117 116.522 91.3619 117.812 91.7439C118.914 92.0729 120.026 92.6141 121.172 92.232C121.561 92.1153 121.784 91.6908 121.561 91.3301Z" fill="#D8E7EB"/>
<path d="M86.1968 97.7502C85.3402 97.3045 84.3279 97.0498 83.3489 97.1241C82.4033 97.1984 81.48 97.4849 80.7013 98.0155C79.8892 98.5672 78.9325 99.3737 79.0771 100.403C79.1439 100.912 79.6333 101.262 80.1673 100.997C80.2007 100.976 80.2229 100.976 80.2341 100.965C80.1896 100.987 80.1228 101.018 80.3119 100.923C80.4454 100.849 80.5678 100.785 80.6902 100.679C80.857 100.541 80.9683 100.382 81.0462 100.297C81.1685 100.169 81.2909 100.042 81.4244 99.9254C81.5912 99.7769 81.5467 99.8193 81.7359 99.692C81.8694 99.6071 82.014 99.5222 82.1586 99.4586C82.2253 99.4267 82.3032 99.3949 82.37 99.363C82.3922 99.3524 82.4812 99.3312 82.5035 99.3206C82.6703 99.2676 82.8483 99.2145 83.0263 99.1827C83.0486 99.1827 83.1487 99.1614 83.1709 99.1614C83.2488 99.1508 83.3155 99.1508 83.3934 99.1508C84.0386 99.1296 84.6282 99.2569 85.1622 99.5328C85.5293 99.7344 85.6406 99.8087 85.9187 100.074C86.308 100.445 86.575 100.753 87.1757 100.806C87.5762 100.838 87.9656 100.509 88.0657 100.159C88.366 99.1084 87.0311 98.1746 86.1968 97.7502Z" fill="#5F3831"/>
<path d="M109.19 98.864C108.89 98.5457 108.534 98.2698 108.167 98.0257C107.422 97.5269 106.532 97.2616 105.63 97.1873C104.718 97.1024 103.795 97.3359 102.972 97.7179C102.582 97.8983 102.226 98.1424 101.893 98.4077C101.47 98.7367 101.225 99.0975 101.047 99.5857C100.791 100.286 101.726 100.955 102.371 100.551C103.005 100.159 103.283 99.8297 103.928 99.5432C103.962 99.5326 104.04 99.5008 104.051 99.5008C104.118 99.4795 104.184 99.4583 104.262 99.4371C104.407 99.3946 104.551 99.3734 104.685 99.3416C104.718 99.331 104.796 99.3203 104.818 99.3203C104.907 99.3097 104.996 99.3097 105.085 99.3097C105.252 99.3097 105.408 99.3097 105.575 99.331C105.586 99.331 105.575 99.331 105.586 99.331C105.597 99.331 105.586 99.331 105.597 99.331C105.686 99.3522 105.775 99.3628 105.853 99.384C106.009 99.4159 106.153 99.4689 106.309 99.522C106.32 99.522 106.32 99.522 106.331 99.522C106.409 99.5538 106.487 99.5963 106.565 99.6387C106.71 99.713 106.843 99.7873 106.977 99.8722C106.988 99.8828 107.043 99.9146 107.077 99.9465C107.121 99.9783 107.188 100.042 107.199 100.053C107.321 100.159 107.433 100.265 107.533 100.382C107.544 100.392 107.577 100.435 107.611 100.466C107.644 100.509 107.7 100.594 107.711 100.604C107.889 100.848 108.078 101.018 108.334 101.188C108.968 101.623 110.002 101.05 109.936 100.318C109.88 99.7024 109.602 99.2991 109.19 98.864Z" fill="#5F3831"/>
<path d="M86.6406 105.009C86.6525 105.009 86.6525 104.997 86.6644 104.997C86.6644 105.009 86.6525 105.009 86.6406 105.009Z" fill="#5F3831"/>
<path d="M86.2969 105.21C86.4193 105.146 86.5305 105.082 86.6529 105.019C86.5528 105.051 86.4526 105.104 86.3636 105.168C86.3302 105.178 86.3191 105.189 86.2969 105.21Z" fill="#5F3831"/>
<path d="M87.7208 105.528C87.6875 105.422 87.6207 105.326 87.5317 105.241C87.3092 105.082 87.2759 105.061 87.4427 105.167C87.2202 104.944 86.9199 104.923 86.6529 105.019C86.3303 105.135 86.1078 105.316 85.9854 105.634C85.9298 105.772 85.9075 105.91 85.8519 106.037C85.8408 106.059 85.8074 106.122 85.7963 106.143C85.7629 106.207 85.7184 106.281 85.6739 106.345C85.6183 106.419 85.5849 106.462 85.4403 106.589C85.2178 106.801 85.0621 106.908 84.7395 107.067C84.6282 107.12 84.7061 107.088 84.6394 107.12C84.5615 107.152 84.4836 107.173 84.3946 107.194C84.3167 107.215 84.2278 107.236 84.1499 107.258C84.1388 107.258 84.0386 107.279 84.0164 107.279C83.36 107.343 82.6926 107.194 82.0918 106.918C81.7359 106.748 81.4021 106.557 81.0795 106.334C80.7458 106.101 80.4566 105.815 80.0672 105.655C79.4109 105.379 78.7434 105.952 79.0771 106.6C79.3107 107.035 79.7112 107.332 80.1117 107.618C80.5122 107.916 80.9238 108.192 81.3799 108.404C82.3032 108.839 83.3267 109.104 84.3612 108.966C85.2734 108.849 86.1634 108.457 86.8197 107.831C87.1424 107.512 87.4093 107.152 87.5873 106.738C87.6986 106.494 87.7876 106.26 87.7987 105.995C87.7987 105.836 87.7876 105.677 87.7208 105.528Z" fill="#5F3831"/>
<path d="M109.48 104.488C109.002 104.308 108.601 104.488 108.301 104.859C107.922 105.326 107.667 105.761 107.133 106.09C106.61 106.409 106.042 106.578 105.453 106.578C104.785 106.578 104.129 106.398 103.539 106.112C103.195 105.942 102.861 105.751 102.538 105.549C102.171 105.305 101.848 105.029 101.437 104.87C100.747 104.605 100.135 105.485 100.491 106.037C100.758 106.451 101.226 106.738 101.626 107.013C102.015 107.279 102.427 107.533 102.85 107.735C103.74 108.149 104.719 108.425 105.709 108.372C106.576 108.329 107.455 108.064 108.178 107.608C108.935 107.13 109.736 106.409 110.014 105.56C110.159 105.125 109.892 104.647 109.48 104.488Z" fill="#5F3831"/>
<path d="M96.4646 111.884C96.2866 111.948 96.1198 112.001 95.9863 112.139C95.9195 112.213 95.8639 112.309 95.7972 112.383C95.786 112.394 95.7749 112.405 95.7749 112.415C95.7304 112.458 95.697 112.5 95.6525 112.543C95.5747 112.617 95.4857 112.691 95.3967 112.755C95.3856 112.755 95.3967 112.755 95.3856 112.765C95.3299 112.797 95.2632 112.84 95.2076 112.872C95.1631 112.893 95.1297 112.914 95.0852 112.935C95.0518 112.946 95.0184 112.967 94.9851 112.978C94.974 112.978 94.9851 112.978 94.9739 112.978C94.885 113.01 94.7848 113.031 94.7181 113.052C94.6625 113.063 94.618 113.073 94.5624 113.084C94.5512 113.084 94.5623 113.084 94.5512 113.084C94.4177 113.084 94.2954 113.084 94.1619 113.084C94.1062 113.073 94.0506 113.063 93.995 113.052C93.9394 113.041 93.8838 113.02 93.8281 113.01C93.8281 113.01 93.8059 112.999 93.7725 112.988C93.7614 112.978 93.6724 112.946 93.6501 112.935C93.5834 112.903 93.5278 112.872 93.461 112.84C93.3609 112.787 93.2608 112.723 93.1607 112.659C93.1495 112.649 93.105 112.627 93.0717 112.606C93.0383 112.585 93.0049 112.553 92.9938 112.553C92.8714 112.458 92.7379 112.373 92.6044 112.288C92.3708 112.139 91.9036 112.001 91.6811 112.256C91.1471 112.85 91.67 113.657 92.1817 114.103C92.7268 114.57 93.4722 114.814 94.1952 114.888C94.885 114.952 95.5858 114.782 96.1865 114.485C96.4758 114.336 96.7539 114.145 96.9875 113.922C97.3101 113.625 97.6772 113.211 97.6438 112.765C97.5993 112.224 97.0653 111.651 96.4646 111.884Z" fill="#F08964"/>
<path d="M96.6289 118.39C96.4164 118.401 96.7967 118.356 96.6289 118.39V118.39Z" fill="#F08964"/>
<path d="M97.565 118.75C97.5205 118.527 97.2646 118.357 97.031 118.368C96.9086 118.368 96.7974 118.368 96.675 118.378C96.6528 118.378 96.6416 118.378 96.6194 118.378C96.5971 118.378 96.5638 118.389 96.5193 118.389C96.3524 118.41 96.2189 118.442 96.0632 118.516C95.9074 118.601 95.7628 118.718 95.6182 118.824C95.5848 118.845 95.5848 118.845 95.5737 118.856C95.5737 118.856 95.5737 118.856 95.5626 118.856C95.5069 118.888 95.4624 118.92 95.4068 118.962C95.2844 119.037 95.1621 119.1 95.0397 119.164C95.0063 119.185 94.9618 119.196 94.9285 119.217C94.9173 119.217 94.8283 119.26 94.8061 119.26C94.5391 119.355 94.261 119.408 93.994 119.461C93.9718 119.461 93.9718 119.461 93.9718 119.472C93.905 119.483 93.8383 119.483 93.7826 119.483C93.638 119.493 93.4934 119.493 93.3488 119.483C93.3377 119.483 93.2153 119.472 93.1708 119.472C93.1374 119.472 93.0596 119.451 93.0484 119.451C92.8704 119.419 92.6813 119.408 92.5033 119.387C92.3587 119.366 92.0361 119.291 91.8247 119.249C91.5578 119.196 91.313 119.207 91.0349 119.185C90.9904 119.185 90.957 119.217 90.957 119.26C90.9793 119.546 91.0238 119.78 91.2018 120.014C91.4354 120.311 91.7024 120.523 92.0139 120.736C92.6257 121.139 93.46 121.277 94.2054 121.277C94.9618 121.277 95.7072 121.043 96.3635 120.693C96.6972 120.523 97.031 120.3 97.2757 120.024C97.6317 119.663 97.6651 119.217 97.565 118.75Z" fill="#F08964"/>
<path d="M178.431 109.136C178.431 109.136 154.28 156.505 154.625 190.239C154.625 190.239 174.015 198.028 174.348 198.993C174.693 199.97 179.788 203.206 179.788 203.206C179.788 203.206 182.169 227.867 181.146 238.245C180.122 248.623 286.584 242.139 286.584 242.139C286.584 242.139 285.905 210.347 285.905 206.124C285.905 201.911 302.569 191.523 302.569 191.523C307.331 165.567 296.106 121.774 277.406 103.278C258.694 84.7826 206.665 104.573 204.618 104.255C202.582 103.947 178.431 109.136 178.431 109.136Z" fill="#2B478B"/>
<path d="M211.425 5.64253C172.957 12.8477 180.132 52.6829 184.215 68.2605C188.298 83.8381 176.728 101.676 178.43 109.136C180.132 116.596 191.69 131.844 217.199 134.115C242.707 136.386 276.047 110.632 279.774 101.994C282.155 96.4763 260.729 91.2873 258.348 73.1205C255.979 54.9644 249.516 -1.48835 211.425 5.64253Z" fill="white"/>
<path d="M251.751 162.002C251.751 162.002 253.753 158.564 250.382 152.812C247.023 147.061 249.437 140.45 247.434 135.558C245.421 130.666 241.004 134.624 241.138 136.651C241.271 138.678 240.849 143.644 240.849 143.644C240.849 143.644 237.066 134.242 235.642 130.061C234.218 125.88 230.636 122.336 228.367 125.552C228.367 125.552 223.116 123.1 222.07 126.867C222.07 126.867 218.878 126.284 218.755 130.348C218.755 130.348 215.629 131.568 216.842 136.258C218.055 140.949 220.669 148.08 226.187 155.115C231.704 162.15 232.605 165.504 239.024 168.008C245.432 170.533 250.783 164.74 251.751 162.002Z" fill="#FFB27D"/>
<path d="M202.772 32.9032C181.591 41.7638 190.39 77.259 204.107 86.4378C217.824 95.6273 235.567 87.0745 237.57 68.6955C239.583 50.3272 234.555 19.5965 202.772 32.9032Z" fill="#FFB27D"/>
<path d="M235.088 43.6206C230.894 32.4679 221.46 25.0716 202.771 32.8923C195.073 36.1182 191.346 42.8566 190.367 50.5712C197.442 45.9445 213.973 37.6781 235.088 43.6206Z" fill="#2B478B"/>
<path d="M251.565 150.669C251.565 150.669 233.199 161.047 229.461 166.246C229.461 166.246 250.887 209.392 272.312 213.287C293.738 217.181 302.582 191.555 302.582 191.555C302.582 191.555 269.587 177.272 251.565 150.669Z" fill="#2B478B"/>
<path d="M182.126 161.8C182.126 161.8 179.868 158.511 182.771 152.536C185.674 146.562 182.749 140.142 184.373 135.123C185.997 130.104 190.714 133.733 190.736 135.77C190.758 137.808 191.57 142.721 191.57 142.721C191.57 142.721 194.607 133.075 195.709 128.809C196.799 124.544 200.103 120.745 202.617 123.801C202.617 123.801 207.656 120.989 208.991 124.671C208.991 124.671 212.129 123.864 212.573 127.907C212.573 127.907 215.788 128.905 214.943 133.669C214.098 138.434 212.051 145.724 207.089 153.141C202.139 160.548 201.493 163.954 195.286 166.915C189.09 169.844 183.305 164.453 182.126 161.8Z" fill="#FFB27D"/>
<path d="M181.433 150.478C181.433 150.478 200.556 159.53 204.694 164.443C204.694 164.443 190.678 211.016 175.037 213.605C153.544 217.171 154.634 190.25 154.634 190.25C154.634 190.25 165.525 178.28 181.433 150.478Z" fill="#2B478B"/>
<path d="M203.571 164.421C202.625 162.49 200.667 161.057 198.91 159.826C196.863 158.394 194.805 156.983 192.691 155.656C190.622 154.362 188.453 153.194 186.206 152.229C185.093 151.74 183.936 151.274 182.768 150.934C182.012 150.711 180.877 150.308 180.209 150.881C180.165 150.913 180.154 150.987 180.165 151.03C180.254 151.295 180.454 151.475 180.677 151.634C180.232 152.197 179.942 152.897 179.631 153.502C178.963 154.786 178.329 156.091 177.662 157.375C176.371 159.879 175.081 162.373 173.746 164.856C172.456 167.265 171.132 169.653 169.786 172.03C169.074 173.292 168.317 174.534 167.617 175.807C167.094 176.752 166.515 177.728 166.782 178.821C166.816 178.969 167.005 179.076 167.172 179.033C168.284 178.694 168.862 177.738 169.419 176.815C170.131 175.648 170.798 174.449 171.466 173.26C172.901 170.735 174.291 168.188 175.66 165.631C176.983 163.148 178.285 160.643 179.52 158.118C180.12 156.898 180.732 155.667 181.3 154.436C181.611 153.767 182.023 153.035 182.19 152.292C183.258 152.706 184.314 153.099 185.349 153.587C187.451 154.574 189.443 155.752 191.39 156.993C193.292 158.203 195.161 159.476 197.007 160.771C198.665 161.927 200.167 163.02 201.257 164.623C201.235 164.644 201.212 164.665 201.19 164.697C200.145 166.268 199.789 168.39 199.221 170.162C198.654 171.934 198.064 173.695 197.452 175.457C196.151 179.213 194.749 182.938 193.236 186.62C191.79 190.133 190.299 193.656 188.597 197.062C187.852 198.547 187.04 200.012 186.083 201.381C185.705 201.922 185.26 202.463 184.848 203.015C184.837 203.025 184.837 203.025 184.826 203.036C184.804 203.068 184.782 203.1 184.759 203.132C184.67 203.259 184.581 203.386 184.492 203.514C184.47 203.556 184.437 203.588 184.414 203.63C184.259 203.874 184.114 204.118 183.992 204.373C183.814 204.67 183.636 204.967 183.458 205.275C183.046 205.965 182.612 206.644 182.145 207.291C181.889 207.652 181.745 207.822 181.478 208.13C181.122 208.533 180.643 208.989 180.688 209.562C180.732 210.061 181.077 210.411 181.611 210.443C182.557 210.496 183.246 209.403 183.725 208.766C184.181 208.151 184.592 207.514 184.982 206.856C185.36 206.209 185.727 205.562 186.094 204.914C186.128 204.861 186.15 204.808 186.183 204.755C188.052 203.344 189.365 200.712 190.255 198.993C192.035 195.555 193.525 191.958 194.994 188.392C196.54 184.636 197.998 180.837 199.332 177.006C200 175.086 200.645 173.165 201.268 171.234C201.791 169.578 202.614 167.7 202.781 165.928C203.393 165.779 203.916 165.121 203.571 164.421Z" fill="#596FA4"/>
<path d="M285.25 173.006C284.26 171.871 282.035 171.701 280.634 171.287C278.976 170.799 277.341 170.268 275.739 169.642C275.305 169.472 274.882 169.281 274.46 169.112C275.772 168.295 274.671 164.74 274.515 163.785C273.57 158.193 272.435 152.622 271.1 147.093C270.377 144.079 269.542 141.087 268.675 138.105C268.252 136.683 267.852 135.251 267.329 133.85C266.939 132.789 266.472 131.611 265.426 131.006C264.959 130.741 264.503 131.176 264.581 131.622C264.759 132.672 265.271 133.701 265.549 134.741C265.916 136.131 266.272 137.511 266.628 138.901C267.34 141.649 267.996 144.419 268.653 147.189C269.954 152.728 271.067 158.299 271.979 163.901C272.201 165.249 272.324 166.639 272.568 167.987C272.591 168.093 272.613 168.188 272.646 168.295C270.455 167.276 268.33 166.109 266.294 164.825C263.368 162.968 260.665 160.824 258.162 158.479C256.927 157.322 255.759 156.102 254.647 154.839C253.957 154.054 252.911 153.088 252.466 152.102C252.878 151.73 253.112 151.306 252.989 150.839C252.978 150.786 252.923 150.733 252.867 150.722C252.01 150.531 250.764 151.338 249.986 151.635C248.795 152.091 247.605 152.547 246.437 153.025C244.023 154.022 241.665 155.115 239.406 156.389C237.215 157.62 235.123 159.01 233.199 160.591C232.253 161.376 231.341 162.204 230.496 163.095C229.695 163.933 228.615 164.91 228.337 166.045C228.237 166.459 228.593 166.841 228.994 166.841C231.408 171.17 234.411 175.287 237.126 179.447C239.729 183.437 242.332 187.459 245.58 191.014C248.873 194.611 252.889 197.465 256.95 200.214C260.877 202.877 264.904 205.456 269.298 207.376C271.69 208.416 274.159 209.318 276.718 209.902C278.409 210.284 281.702 211.345 282.925 209.668C282.992 209.583 282.981 209.456 282.925 209.371C282.013 207.886 279.365 208.13 277.808 207.811C275.516 207.344 273.269 206.644 271.133 205.742C266.939 203.981 263.024 201.657 259.241 199.206C255.292 196.648 251.332 194.017 248.039 190.695C244.713 187.342 242.087 183.437 239.506 179.553C236.503 175.012 233.688 170.215 230.351 165.886C230.829 165.366 231.263 164.782 231.73 164.294C232.62 163.36 233.577 162.49 234.578 161.673C236.592 160.028 238.817 158.628 241.119 157.386C243.344 156.187 245.658 155.115 248.005 154.139C248.517 153.927 249.696 153.587 250.775 153.12C251.009 153.598 251.387 154.043 251.688 154.447C252.333 155.296 253.011 156.123 253.712 156.93C256.349 159.986 259.364 162.713 262.656 165.111C265.983 167.531 269.598 169.6 273.414 171.245C275.349 172.083 277.33 172.836 279.365 173.441C281.034 173.95 283.448 174.969 285.117 174.184C285.584 173.95 285.551 173.356 285.25 173.006Z" fill="#596FA4"/>
<path d="M203.605 125.329C203.483 125.021 203.027 124.819 202.76 125.117C202.059 125.912 202.003 127.281 201.758 128.268C201.48 129.414 201.158 130.55 200.791 131.685C200.435 132.81 200.034 133.935 199.6 135.038C199.233 135.972 198.499 137.171 198.732 138.179C198.788 138.434 199.133 138.551 199.355 138.423C200.268 137.903 200.646 136.545 201.002 135.643C201.447 134.497 201.858 133.351 202.226 132.184C202.582 131.059 202.893 129.913 203.171 128.767C203.305 128.194 203.449 127.621 203.549 127.037C203.65 126.485 203.816 125.87 203.605 125.329Z" fill="#FAA999"/>
<path d="M209.826 126.125C208.936 126.05 208.602 127.865 208.391 128.438C207.968 129.584 207.579 130.741 207.134 131.876C206.689 133.012 206.211 134.136 205.732 135.261C205.298 136.259 204.687 137.309 204.887 138.423C204.909 138.572 205.109 138.625 205.232 138.561C206.3 137.988 206.745 136.747 207.201 135.739C207.735 134.571 208.213 133.372 208.658 132.173C208.914 131.494 211.027 126.22 209.826 126.125Z" fill="#FAA999"/>
<path d="M212.649 129.531C212.627 129.404 212.416 129.351 212.327 129.446C211.136 130.879 210.614 132.778 209.857 134.444C209.468 135.325 209.012 136.163 208.633 137.044C208.288 137.829 207.788 138.795 207.888 139.665C207.899 139.814 208.044 139.888 208.188 139.835C209.023 139.474 209.623 138.54 210.068 137.819C210.602 136.948 211.003 136.004 211.403 135.06C212.126 133.351 212.95 131.399 212.649 129.531Z" fill="#FAA999"/>
<path d="M227.113 142.138C225.244 140.949 224.009 139.304 222.864 137.479C222.241 136.492 221.662 135.484 221.128 134.444C220.85 133.903 220.583 133.351 220.338 132.789C220.116 132.279 219.871 131.685 219.437 131.314C219.226 131.133 218.792 131.176 218.736 131.494C218.636 132.099 218.848 132.736 219.07 133.309C219.315 133.935 219.582 134.55 219.86 135.166C220.427 136.397 221.073 137.596 221.807 138.753C222.463 139.782 223.142 140.885 224.043 141.745C224.81 142.477 226.079 143.071 227.102 142.456C227.236 142.371 227.224 142.212 227.113 142.138Z" fill="#FAA999"/>
<path d="M230.361 138.625C229.46 138.402 228.693 137.797 228.17 137.065C227.469 136.089 226.835 135.059 226.268 133.998C225.711 132.969 225.222 131.908 224.788 130.836C224.577 130.305 224.365 129.775 224.143 129.255C224.032 128.99 223.943 128.724 223.742 128.502C223.587 128.332 223.442 128.321 223.264 128.226C223.208 128.194 223.131 128.215 223.097 128.268C222.964 128.47 222.852 128.533 222.808 128.799C222.763 129.117 222.864 129.446 222.919 129.754C223.064 130.422 223.297 131.08 223.531 131.727C224.009 133.022 224.621 134.285 225.3 135.494C225.934 136.63 226.624 137.903 227.592 138.826C228.303 139.495 229.95 140.227 230.517 138.986C230.595 138.848 230.551 138.667 230.361 138.625Z" fill="#FAA999"/>
<path d="M234.085 135.77C233.863 135.272 233.585 134.805 233.318 134.338C232.795 133.425 232.228 132.534 231.716 131.611C231.226 130.719 230.759 129.807 230.348 128.883C230.125 128.395 229.936 127.886 229.713 127.398C229.502 126.931 229.335 126.453 228.924 126.114C228.701 125.923 228.301 125.987 228.223 126.294C227.989 127.26 228.556 128.374 228.912 129.265C229.324 130.295 229.791 131.313 230.292 132.311C230.781 133.266 231.304 134.242 231.949 135.112C232.272 135.547 232.595 135.982 232.984 136.364C233.362 136.736 233.818 137.022 234.263 137.33C234.397 137.426 234.597 137.266 234.541 137.128C234.397 136.651 234.274 136.205 234.085 135.77Z" fill="#FAA999"/>
<path d="M237.292 80.6442C234.567 83.244 232.709 86.7033 230.373 89.6214C227.914 92.6987 225.166 95.5638 222.207 98.206C220.995 99.2884 219.727 100.328 218.436 101.336C218.369 101.283 218.303 101.22 218.203 101.177C217.146 100.732 216.022 100.456 214.965 100.031C213.908 99.5961 212.885 99.0868 211.895 98.5244C209.97 97.4208 208.202 96.0731 206.6 94.5875C205.087 93.1868 203.707 91.6482 202.517 89.9822C201.927 89.1651 201.382 88.3056 200.859 87.4461C200.437 86.7563 200.047 85.6315 199.157 85.4193C198.957 85.3662 198.679 85.4511 198.59 85.6421C198.178 86.4698 198.835 87.4355 199.235 88.1889C199.747 89.1651 200.348 90.1095 200.993 91.0115C202.228 92.773 203.641 94.4284 205.198 95.9352C206.822 97.4951 208.613 98.917 210.549 100.105C211.606 100.763 212.718 101.336 213.875 101.824C214.698 102.175 215.577 102.567 216.478 102.822C212.117 105.984 207.389 108.711 202.428 110.897C200.348 111.81 198.223 112.627 196.054 113.338C193.951 114.028 191.659 114.441 189.868 115.757C189.613 115.948 189.568 116.436 189.969 116.5C191.938 116.829 193.773 116.277 195.642 115.694C197.6 115.078 199.536 114.388 201.427 113.614C205.242 112.075 208.925 110.229 212.418 108.106C219.415 103.851 225.678 98.4289 230.807 92.2C233.521 88.9104 236.792 85.0373 237.626 80.814C237.648 80.6548 237.437 80.5168 237.292 80.6442Z" fill="#D8E7EB"/>
<path d="M202.436 53.0863C202.069 52.8635 201.668 52.6937 201.257 52.5557C200.433 52.2798 199.532 52.2268 198.687 52.4072C197.942 52.5663 197.241 52.9484 196.696 53.4471C196.095 53.9883 195.505 54.8584 195.795 55.6755C195.984 56.1954 196.685 56.4289 197.118 56.0044C197.352 55.771 197.485 55.5269 197.652 55.2616C197.686 55.2192 197.708 55.1661 197.741 55.1237C197.741 55.1237 197.797 55.06 197.819 55.0176C197.853 54.9857 197.886 54.9327 197.897 54.9327C197.942 54.8796 197.997 54.8372 198.042 54.7947C198.086 54.7523 198.131 54.7204 198.186 54.678C198.197 54.6674 198.197 54.6674 198.209 54.6674C198.331 54.5931 198.442 54.5188 198.576 54.4552C198.576 54.4552 198.642 54.4233 198.687 54.4021C198.731 54.3915 198.798 54.3597 198.809 54.3597C198.943 54.3172 199.076 54.2854 199.221 54.2535C199.243 54.2429 199.243 54.2536 199.254 54.2429C199.321 54.2323 199.388 54.2323 199.455 54.2323C199.621 54.2217 199.777 54.2429 199.944 54.2429C199.966 54.2429 199.955 54.2429 199.955 54.2429C199.977 54.2429 199.977 54.2429 200.011 54.2535C200.089 54.2642 200.167 54.2854 200.244 54.3066C200.389 54.3384 200.522 54.3809 200.667 54.4233C200.712 54.4339 200.712 54.434 200.734 54.4446C200.745 54.4446 200.734 54.4446 200.745 54.4552C200.823 54.487 200.89 54.5188 200.967 54.5613C201.112 54.6356 201.257 54.7098 201.39 54.7947C201.446 54.8266 201.501 54.869 201.557 54.9008C201.557 54.9008 201.635 54.9539 201.679 54.9751C201.724 55.007 201.913 55.1449 201.969 55.1661C202.158 55.251 202.336 55.3041 202.547 55.2935C203.025 55.2722 203.526 54.9008 203.482 54.4021C203.426 53.7442 202.97 53.4046 202.436 53.0863Z" fill="#5F3831"/>
<path d="M225.387 48.4171C224.085 47.6106 222.395 47.3453 220.904 47.7698C219.28 48.2261 217.522 49.5844 217.366 51.2823C217.3 51.9508 218.356 52.3859 218.812 51.8553C219.28 51.3141 219.569 50.7835 220.125 50.3378C220.559 49.9876 221.137 49.7117 221.738 49.5844C222.862 49.3403 224.163 49.7648 225.02 50.6456C225.331 50.9639 225.654 51.3247 226.155 51.3247C226.722 51.3247 227.1 50.8684 227.078 50.3484C227.033 49.5313 226.054 48.831 225.387 48.4171Z" fill="#5F3831"/>
<path d="M205.264 61.3419C205.198 61.0342 204.997 60.8856 204.808 60.6628C204.452 60.2702 203.774 60.4824 203.607 60.9281C203.585 60.9599 203.551 60.9917 203.529 61.0236C203.473 61.1191 203.44 61.2358 203.407 61.3419C203.362 61.5011 203.34 61.6602 203.295 61.8088C203.24 61.9785 203.051 62.2332 202.884 62.403C202.405 62.8699 201.738 63.1246 201.059 63.2307C199.736 63.4323 198.401 62.8805 197.844 61.692C197.644 61.2782 197.066 61.2252 196.687 61.4056C195.853 61.7982 195.108 62.6683 195.542 63.5702C195.664 63.8249 196.064 63.8992 196.298 63.7612C196.532 63.6339 196.699 63.4535 196.877 63.2837C197.956 64.6631 199.78 65.2574 201.638 64.9603C202.684 64.7905 203.729 64.313 204.441 63.549C204.786 63.1776 205.086 62.7426 205.231 62.2651C205.298 61.9679 205.331 61.6496 205.264 61.3419Z" fill="#5F3831"/>
<path d="M228.257 55.9302C228.035 55.7923 227.757 55.6437 227.445 55.58C227.178 55.527 226.967 55.4633 226.733 55.3254C226.132 54.9646 225.276 55.3148 225.109 55.9515C224.809 57.0869 224.386 58.5407 223.262 59.1031C222.55 59.4639 221.683 59.3365 220.971 59.05C220.192 58.7423 219.48 57.9889 218.59 58.0101C218.178 58.0207 217.945 58.3603 218.023 58.7211C218.134 59.2835 218.635 59.6655 219.102 59.9945C219.58 60.334 220.081 60.6099 220.637 60.8328C221.727 61.2572 222.962 61.3527 224.063 60.9177C225.565 60.3234 226.366 58.9863 226.889 57.5856C226.978 57.5962 227.067 57.6069 227.156 57.6069C227.434 57.6069 227.723 57.5538 227.968 57.4158C228.224 57.2779 228.446 56.9595 228.502 56.8428C228.702 56.5032 228.591 56.1318 228.257 55.9302Z" fill="#5F3831"/>
<path d="M215.207 65.7989C214.784 65.6291 214.284 65.7776 214.039 66.1598C213.983 66.2447 213.928 66.3402 213.872 66.4251C213.85 66.457 213.828 66.4994 213.805 66.5313C213.783 66.5525 213.694 66.7117 213.761 66.5949C213.828 66.4888 213.727 66.6268 213.716 66.648C213.683 66.6799 213.661 66.7117 213.627 66.7435C213.561 66.8072 213.494 66.8709 213.416 66.9346C213.405 66.9452 213.416 66.9452 213.405 66.9452C213.371 66.9771 213.316 66.9983 213.282 67.0195C213.205 67.0726 213.116 67.115 213.027 67.1575C213.015 67.1681 212.949 67.1893 212.927 67.1999C212.915 67.1999 212.915 67.2 212.904 67.2106C212.793 67.2424 212.693 67.2636 212.582 67.2955C212.482 67.3167 212.393 67.3485 212.292 67.3698C212.248 67.3804 212.203 67.391 212.159 67.391C212.148 67.391 212.148 67.391 212.137 67.391C212.137 67.391 212.137 67.391 212.126 67.391C212.025 67.391 211.925 67.4016 211.825 67.4016C211.77 67.4016 211.714 67.4016 211.658 67.391C211.636 67.391 211.603 67.391 211.58 67.3804C211.38 67.3485 211.202 67.2955 211.002 67.253C210.846 67.2212 210.457 67.2424 210.379 67.4228C210.157 67.9854 210.846 68.3993 211.302 68.5904C211.881 68.8345 212.504 68.9619 213.138 68.8557C214.273 68.6647 215.307 67.8474 215.73 66.8285C215.919 66.4357 215.596 65.9581 215.207 65.7989Z" fill="#F18B66"/>
<path d="M218.346 74.7016C218.268 74.5106 218.168 74.2984 217.934 74.2347C217.734 74.1816 217.467 74.2771 217.278 74.3408C216.766 74.5318 216.388 74.9457 215.988 75.2746C215.976 75.2746 215.988 75.2746 215.965 75.2852C215.921 75.3065 215.876 75.3383 215.832 75.3701C215.743 75.4232 215.643 75.4762 215.554 75.5187C215.52 75.5293 215.498 75.5505 215.465 75.5611C215.442 75.5717 215.42 75.5717 215.409 75.5824C215.276 75.6248 215.153 75.6566 215.02 75.6885C215.009 75.6885 214.997 75.6885 214.975 75.6991C214.931 75.7097 214.82 75.7203 214.808 75.7203C214.664 75.7309 214.53 75.7415 214.386 75.7415C214.241 75.7415 214.108 75.7203 213.974 75.7097C213.918 75.7097 213.863 75.6991 213.807 75.6991C213.796 75.6991 213.796 75.6991 213.796 75.6991C213.774 75.6991 213.752 75.6885 213.729 75.6885C213.44 75.6354 213.162 75.5611 212.873 75.5187C212.617 75.4868 212.172 75.5293 212.094 75.8158C211.938 76.3888 212.472 76.8876 212.928 77.1741C213.462 77.503 214.041 77.6516 214.675 77.694C215.776 77.7789 217.111 77.2696 217.845 76.4737C218.268 75.9962 218.613 75.3383 218.346 74.7016Z" fill="#F18B66"/>
<path d="M234.756 59.9199C234.744 59.9092 234.722 59.8986 234.711 59.888C234.644 59.7395 234.555 59.5909 234.444 59.4742C234.133 59.1559 233.754 59.0497 233.32 58.9967C232.809 58.9436 232.308 58.9861 231.796 59.0497C231.363 59.1028 230.951 59.2089 230.55 59.3681C230.061 59.5591 229.594 59.7713 229.204 60.1215C228.348 60.8961 228.314 62.1482 229.127 62.9547C229.727 63.5489 230.673 63.8142 231.518 63.7505C232.52 63.6869 233.476 63.3473 234.277 62.7637C235.167 62.1164 235.712 60.79 234.756 59.9199Z" fill="#FA9385"/>
<path d="M200.748 67.8679C200.737 67.8573 200.714 67.8467 200.703 67.8361C200.637 67.6875 200.548 67.5389 200.436 67.4222C200.125 67.1039 199.747 66.9977 199.313 66.9447C198.801 66.8916 198.3 66.9341 197.789 66.9977C197.355 67.0508 196.943 67.1569 196.543 67.3161C196.053 67.5071 195.586 67.7193 195.197 68.0695C194.34 68.8442 194.307 70.0964 195.119 70.9029C195.719 71.4971 196.665 71.7624 197.511 71.6988C198.512 71.6351 199.468 71.2955 200.269 70.7119C201.159 70.0645 201.704 68.7381 200.748 67.8679Z" fill="#FA9385"/>
</g>
</svg>
