<svg width="75" height="92" viewBox="0 0 75 92" fill="none" xmlns="http://www.w3.org/2000/svg">
<g clip-path="url(#clip0_1_14161)">
<path d="M38.792 26.3737C38.792 29.4515 36.2792 31.9294 33.194 31.9294H21.9027C18.8015 31.9294 16.3047 29.4357 16.3047 26.3737V17.8508C16.3047 14.7731 18.8174 12.2952 21.9027 12.2952H33.194C36.2792 12.2952 38.792 14.7889 38.792 17.8508V26.3737Z" fill="#EE5463"/>
<path d="M42.3703 11.4901C42.3703 14.5679 39.8576 17.0458 36.7724 17.0458H18.3245C15.2393 17.0458 12.7266 14.5521 12.7266 11.4901V5.55567C12.7266 2.49374 15.2393 0 18.3245 0H36.7724C39.8735 0 42.3703 2.49374 42.3703 5.55567V11.4901Z" fill="#91CECF"/>
<g opacity="0.5">
<path d="M19.5807 13.7472C19.5807 14.8836 18.6424 15.8148 17.4974 15.8148C16.3524 15.8148 15.4141 14.8836 15.4141 13.7472V3.86691C15.4141 2.73052 16.3524 1.79932 17.4974 1.79932C18.6583 1.79932 19.5807 2.73052 19.5807 3.86691V13.7472Z" fill="white"/>
<path d="M26.276 13.7472C26.276 14.8836 25.3377 15.8148 24.1927 15.8148C23.0477 15.8148 22.1094 14.8836 22.1094 13.7472V3.86691C22.1094 2.73052 23.0477 1.79932 24.1927 1.79932C25.3377 1.79932 26.276 2.73052 26.276 3.86691V13.7472Z" fill="white"/>
<path d="M32.987 13.7472C32.987 14.8836 32.0487 15.8148 30.9036 15.8148C29.7586 15.8148 28.8203 14.8836 28.8203 13.7472V3.86691C28.8203 2.73052 29.7586 1.79932 30.9036 1.79932C32.0487 1.79932 32.987 2.73052 32.987 3.86691V13.7472Z" fill="white"/>
<path d="M39.6823 13.7472C39.6823 14.8836 38.744 15.8148 37.599 15.8148C36.438 15.8148 35.5156 14.8836 35.5156 13.7472V3.86691C35.5156 2.73052 36.4539 1.79932 37.599 1.79932C38.744 1.79932 39.6823 2.73052 39.6823 3.86691V13.7472Z" fill="white"/>
</g>
<path d="M49.0168 29.1672V76.2326C49.0168 79.2945 46.5041 81.7883 43.4188 81.7883H11.6917C8.60647 81.7883 6.09375 79.2945 6.09375 76.2326V29.1672C6.09375 26.0895 8.60647 23.6116 11.6917 23.6116H43.4188C46.5041 23.6116 49.0168 26.0895 49.0168 29.1672Z" fill="#EE5463"/>
<path d="M37.5982 36.9642V51.1848C37.5982 52.4159 36.5963 53.4102 35.3558 53.4102H6.09375V34.7388H35.3558C36.5804 34.7388 37.5982 35.7331 37.5982 36.9642Z" fill="white"/>
<path d="M6.09375 49.0699V47.0181H29.1058C29.6784 47.0181 30.1396 47.4758 30.1396 48.044C30.1396 48.6122 29.6784 49.0699 29.1058 49.0699H6.09375Z" fill="#F99746"/>
<path d="M6.09375 45.1082V43.0564H29.1058C29.6784 43.0564 30.1396 43.5141 30.1396 44.0823C30.1396 44.6505 29.6784 45.1082 29.1058 45.1082H6.09375Z" fill="#F99746"/>
<path d="M6.09375 41.1309V39.0791H29.1058C29.6784 39.0791 30.1396 39.5368 30.1396 40.105C30.1396 40.6732 29.6784 41.1309 29.1058 41.1309H6.09375Z" fill="#F99746"/>
<path d="M46.9349 77.3375C46.9349 78.5686 45.933 79.563 44.6926 79.563H10.0392C8.79878 79.563 7.79688 78.5686 7.79688 77.3375V76.138C7.79688 74.9069 8.79878 73.9126 10.0392 73.9126H44.6926C45.933 73.9126 46.9349 74.9069 46.9349 76.138V77.3375Z" fill="#DE2E40"/>
<path d="M69.4534 45.361V89.2697C69.4534 90.2483 68.6583 91.0374 67.6723 91.0374H28.3593C27.3733 91.0374 26.5781 90.2325 26.5781 89.2697V45.361C26.5781 44.3824 27.3733 43.5933 28.3593 43.5933H67.6723C68.6583 43.5933 69.4534 44.3824 69.4534 45.361Z" fill="#2B478B"/>
<path d="M63.6313 83.8245C63.6313 84.6925 62.9157 85.387 62.0569 85.387H38.7268C37.8521 85.387 37.1523 84.6925 37.1523 83.8245V42.9934C37.1523 42.1254 37.868 41.4309 38.7268 41.4309H62.0569C62.9316 41.4309 63.6313 42.1411 63.6313 42.9934V83.8245Z" fill="#233862"/>
<path d="M73.2218 47.6652C73.2218 48.6438 72.4266 49.433 71.4406 49.433H24.6054C23.6194 49.433 22.8242 48.6438 22.8242 47.6652V39.5211C22.8242 38.5426 23.6194 37.7534 24.6054 37.7534H71.4406C72.4266 37.7534 73.2218 38.5426 73.2218 39.5211V47.6652Z" fill="#F99746"/>
<path d="M69.4525 56.5354V76.801H45.3749C44.3889 76.801 43.5938 76.0118 43.5938 75.0333V58.3031C43.5938 57.3246 44.3889 56.5354 45.3749 56.5354H69.4525Z" fill="white"/>
<path d="M69.4533 60.6233V63.2275H49.3197C48.604 63.2275 48.0156 62.6435 48.0156 61.9333C48.0156 61.2073 48.604 60.6233 49.3197 60.6233H69.4533Z" fill="#808080"/>
<path d="M69.4533 65.6423V68.2466H49.3197C48.604 68.2466 48.0156 67.6626 48.0156 66.9523C48.0156 66.2421 48.604 65.6581 49.3197 65.6581H69.4533V65.6423Z" fill="#808080"/>
<path d="M69.4533 70.6614V73.2498H49.3197C48.604 73.2498 48.0156 72.6658 48.0156 71.9556C48.0156 71.2454 48.604 70.6614 49.3197 70.6614H69.4533Z" fill="#808080"/>
<path d="M27.5479 46.955C27.5479 47.5232 27.0867 47.9809 26.5142 47.9809C25.9417 47.9809 25.4805 47.5232 25.4805 46.955V40.1682C25.4805 39.6 25.9417 39.1423 26.5142 39.1423C27.0867 39.1423 27.5479 39.6 27.5479 40.1682V46.955Z" fill="#EE842D"/>
<path d="M31.8721 46.955C31.8721 47.5232 31.4109 47.9809 30.8384 47.9809C30.2659 47.9809 29.8047 47.5232 29.8047 46.955V40.1682C29.8047 39.6 30.2659 39.1423 30.8384 39.1423C31.4109 39.1423 31.8721 39.6 31.8721 40.1682V46.955Z" fill="#EE842D"/>
<path d="M36.2159 46.955C36.2159 47.5232 35.7547 47.9809 35.1822 47.9809C34.6096 47.9809 34.1484 47.5232 34.1484 46.955V40.1682C34.1484 39.6 34.6096 39.1423 35.1822 39.1423C35.7547 39.1423 36.2159 39.6 36.2159 40.1682V46.955Z" fill="#EE842D"/>
<path d="M40.5401 46.955C40.5401 47.5232 40.0789 47.9809 39.5064 47.9809C38.9339 47.9809 38.4727 47.5232 38.4727 46.955V40.1682C38.4727 39.6 38.9339 39.1423 39.5064 39.1423C40.0789 39.1423 40.5401 39.6 40.5401 40.1682V46.955Z" fill="#EE842D"/>
<path d="M44.8643 46.955C44.8643 47.5232 44.4031 47.9809 43.8306 47.9809C43.2581 47.9809 42.7969 47.5232 42.7969 46.955V40.1682C42.7969 39.6 43.2581 39.1423 43.8306 39.1423C44.4031 39.1423 44.8643 39.6 44.8643 40.1682V46.955Z" fill="#EE842D"/>
<path d="M49.1924 46.955C49.1924 47.5232 48.7312 47.9809 48.1587 47.9809C47.5862 47.9809 47.125 47.5232 47.125 46.955V40.1682C47.125 39.6 47.5862 39.1423 48.1587 39.1423C48.7312 39.1423 49.1924 39.6 49.1924 40.1682V46.955Z" fill="#EE842D"/>
<path d="M53.5167 46.955C53.5167 47.5232 53.0555 47.9809 52.4829 47.9809C51.9104 47.9809 51.4492 47.5232 51.4492 46.955V40.1682C51.4492 39.6 51.9104 39.1423 52.4829 39.1423C53.0555 39.1423 53.5167 39.6 53.5167 40.1682V46.955Z" fill="#EE842D"/>
<path d="M57.8448 46.955C57.8448 47.5232 57.3836 47.9809 56.8111 47.9809C56.2385 47.9809 55.7773 47.5232 55.7773 46.955V40.1682C55.7773 39.6 56.2385 39.1423 56.8111 39.1423C57.3836 39.1423 57.8448 39.6 57.8448 40.1682V46.955Z" fill="#EE842D"/>
<path d="M62.1846 46.955C62.1846 47.5232 61.7234 47.9809 61.1509 47.9809C60.5784 47.9809 60.1172 47.5232 60.1172 46.955V40.1682C60.1172 39.6 60.5784 39.1423 61.1509 39.1423C61.7234 39.1423 62.1846 39.6 62.1846 40.1682V46.955Z" fill="#EE842D"/>
<path d="M66.5088 46.955C66.5088 47.5232 66.0476 47.9809 65.4751 47.9809C64.9026 47.9809 64.4414 47.5232 64.4414 46.955V40.1682C64.4414 39.6 64.9026 39.1423 65.4751 39.1423C66.0476 39.1423 66.5088 39.6 66.5088 40.1682V46.955Z" fill="#EE842D"/>
<path d="M70.837 46.955C70.837 47.5232 70.3758 47.9809 69.8032 47.9809C69.2307 47.9809 68.7695 47.5232 68.7695 46.955V40.1682C68.7695 39.6 69.2307 39.1423 69.8032 39.1423C70.3758 39.1423 70.837 39.6 70.837 40.1682V46.955Z" fill="#EE842D"/>
<path d="M4.16826 74.1178L17.3998 73.6916C19.7694 73.6127 21.7573 75.4751 21.8368 77.8268C21.8686 78.9948 21.4393 80.0838 20.6759 80.8887C19.9284 81.6779 18.8629 82.1987 17.6702 82.2303L4.43862 82.6565C2.06903 82.7354 0.0811134 80.8887 0.00159687 78.5213C-0.0302097 77.3375 0.415083 76.2643 1.16254 75.4593C1.9259 74.6702 2.97552 74.1651 4.16826 74.1178Z" fill="#2B478B"/>
<path d="M4.16826 74.1178L10.784 73.9126L11.0544 82.4513L4.43862 82.6565C2.06903 82.7354 0.0811134 80.8888 0.00159687 78.5213C-0.0302097 77.3375 0.415083 76.2643 1.16254 75.4593C1.9259 74.6702 2.97552 74.1651 4.16826 74.1178Z" fill="#233862"/>
<path d="M60.7694 90.4218C60.7694 90.8006 60.4514 91.1162 60.0697 91.1162H46.9654C46.5837 91.1162 46.2656 90.8006 46.2656 90.4218V89.0802C46.2656 88.7014 46.5837 88.3857 46.9654 88.3857H60.0697C60.4514 88.3857 60.7694 88.7014 60.7694 89.0802V90.4218Z" fill="white"/>
<path d="M52.6428 89.822C52.6428 90.2008 52.3248 90.5164 51.9431 90.5164H46.9654C46.5837 90.5164 46.2656 90.2008 46.2656 89.822V87.3282C46.2656 86.9495 46.5837 86.6338 46.9654 86.6338H51.9431C52.3248 86.6338 52.6428 86.9495 52.6428 87.3282V89.822Z" fill="#91CECF"/>
<path d="M60.7678 89.822C60.7678 90.2008 60.4498 90.5164 60.0681 90.5164H55.0904C54.7087 90.5164 54.3906 90.2008 54.3906 89.822V87.3282C54.3906 86.9495 54.7087 86.6338 55.0904 86.6338H60.0681C60.4498 86.6338 60.7678 86.9495 60.7678 87.3282V89.822Z" fill="#91CECF"/>
<path d="M72.6309 90.3584C70.1341 92.5049 66.5082 92.5207 63.9955 90.5952C63.6297 90.3269 63.2957 89.9954 62.9776 89.6482C62.6755 89.2852 62.4051 88.9064 62.1825 88.5118C60.6399 85.7655 61.1965 82.2143 63.6933 80.0836C66.1901 77.9371 69.8002 77.9213 72.3129 79.8311C72.6787 80.1152 73.0126 80.4308 73.3307 80.7938C73.6488 81.1569 73.9032 81.5356 74.1418 81.9302C75.6844 84.6923 75.1278 88.2277 72.6309 90.3584Z" fill="#91CECF"/>
<path d="M74.1429 81.9302L64.092 90.5162C64.0602 90.5478 64.0284 90.5794 63.9966 90.5952C63.6308 90.3269 63.2968 89.9954 62.9788 89.6482C62.6766 89.2852 62.4062 88.9064 62.1836 88.5118C62.2154 88.4802 62.2472 88.4487 62.279 88.4329L72.3299 79.8311C72.6957 80.1152 73.0297 80.4308 73.3477 80.7938C73.6499 81.1411 73.9202 81.5356 74.1429 81.9302Z" fill="white"/>
</g>
<defs>
<clipPath id="clip0_1_14161">
<rect width="75" height="92" fill="white"/>
</clipPath>
</defs>
</svg>
