<svg width="101" height="56" viewBox="0 0 101 56" fill="none" xmlns="http://www.w3.org/2000/svg">
<g clip-path="url(#clip0_1_14343)">
<path d="M3.27699 33.5949C3.27699 34.506 2.53743 35.2502 1.63212 35.2502C0.739553 35.2502 0 34.506 0 33.5949V28.077C0 27.1659 0.739553 26.4216 1.64487 26.4216C2.55018 26.4216 3.28974 27.1659 3.28974 28.077V33.5949H3.27699Z" fill="#F99746"/>
<path d="M101.001 42.4235C101.001 43.3346 100.261 44.0788 99.3558 44.0788C98.4505 44.0788 97.7109 43.3346 97.7109 42.4235V36.9056C97.7109 35.9945 98.4505 35.2502 99.3558 35.2502C100.261 35.2502 101.001 35.9945 101.001 36.9056V42.4235Z" fill="#F99746"/>
<path d="M98.5004 42.2053C98.5004 44.8488 96.371 46.9917 93.7443 46.9917H28.3066C25.68 46.9917 9.26953 44.8488 9.26953 42.2053L23.5506 4.78643C23.5506 2.14299 25.68 0 28.3066 0H93.7443C96.371 0 98.5004 2.14299 98.5004 4.78643V42.2053Z" fill="#2B478B"/>
<path d="M67.5692 42.2053C67.5692 44.8487 65.4398 46.9917 62.8131 46.9917H7.19359C4.5669 46.9917 2.4375 44.8487 2.4375 42.2053V28.2823C2.4375 25.6388 4.5669 23.4958 7.19359 23.4958H62.8131C65.4398 23.4958 67.5692 25.6388 67.5692 28.2823V42.2053Z" fill="#2B478B"/>
<path d="M51.7944 6.80105V20.7112C51.7944 22.1613 50.6213 23.3547 49.1677 23.3547H27.4912C26.6369 23.3547 25.8463 22.944 25.349 22.2511C24.8645 21.5582 24.737 20.6856 25.0048 19.8643L25.9228 17.131L26.4201 15.6297L27.0449 13.769L29.6716 5.97979C30.0414 4.91471 31.0359 4.18327 32.1708 4.18327H49.1677C50.6341 4.15761 51.7944 5.33818 51.7944 6.80105Z" fill="#7F8C8D"/>
<path d="M98.4999 30.8359H2.23047V40.1137H98.4999V30.8359Z" fill="#92C3D1"/>
<path d="M17.1009 41.9487C19.8678 37.8295 25.44 36.7516 29.533 39.5362C33.6261 42.3208 34.6971 47.9285 31.9302 52.0477C29.1633 56.1669 23.5911 57.2448 19.4981 54.4602C15.405 51.6756 14.3212 46.0679 17.1009 41.9487Z" fill="#EE5463"/>
<path d="M21.2584 44.4639C22.5207 42.5775 25.0837 42.0771 26.958 43.3603C28.8324 44.6435 29.3297 47.21 28.0546 49.0963C26.7795 50.9827 24.2293 51.4831 22.355 50.1999C20.4806 48.9167 19.9833 46.3502 21.2584 44.4639Z" fill="#EFCBAB"/>
<path d="M72.232 41.9487C74.9989 37.8295 80.5711 36.7516 84.6641 39.5362C88.7572 42.3208 89.8283 47.9285 87.0613 52.0477C84.2944 56.1669 78.7222 57.2448 74.6292 54.4602C70.5361 51.6756 69.4651 46.0679 72.232 41.9487Z" fill="#EE5463"/>
<path d="M76.4029 44.4639C77.6653 42.5775 80.2282 42.0771 82.1026 43.3603C83.977 44.6435 84.4743 47.21 83.1992 49.0963C81.9241 50.9827 79.3739 51.4831 77.4995 50.1999C75.6251 48.9167 75.1278 46.3502 76.4029 44.4639Z" fill="#EFCBAB"/>
<path d="M51.806 12.704V20.7113C51.806 22.1614 50.6329 23.3548 49.1793 23.3548H45.2266V15.1036C45.2266 13.6408 46.4124 12.4602 47.8532 12.4602H50.6967C51.092 12.4474 51.4618 12.5372 51.806 12.704Z" fill="#95A5A6"/>
<path d="M34.7571 20.1723C34.7571 16.5536 31.8499 13.615 28.3052 13.615C27.8844 13.615 27.4764 13.6535 27.0683 13.7305L26.4435 15.5912L25.9463 17.0925L25.0282 19.8258C24.7604 20.6471 24.8879 21.5325 25.3725 22.2126C25.8698 22.9184 26.6603 23.3162 27.5146 23.3162H32.9465H33.9666C34.4639 22.4051 34.7571 21.3272 34.7571 20.1723ZM30.2561 16.8359L26.6603 19.9798C26.8261 18.9147 27.3106 17.2722 27.6039 16.3354C27.8334 16.2969 28.0629 16.2713 28.2924 16.2713C29.0065 16.2584 29.6823 16.4766 30.2561 16.8359ZM27.4509 21.879L31.9519 19.0815C32.054 19.428 32.1177 19.7873 32.1177 20.1723C32.1177 21.0577 31.8117 21.8661 31.3144 22.5206C29.2105 22.2639 28.0757 22.0715 27.4509 21.879Z" fill="#95A5A6"/>
</g>
<defs>
<clipPath id="clip0_1_14343">
<rect width="101" height="56" fill="white"/>
</clipPath>
</defs>
</svg>
