<svg width="64" height="64" viewBox="0 0 64 64" fill="none" xmlns="http://www.w3.org/2000/svg">
<g id="Herbal">
<g id="Group">
<path id="Vector" d="M19.5781 51.3513V54.0609C19.5781 55.1325 20.4401 56.0002 21.4979 56.0002H42.1118C43.1726 56.0002 44.0315 55.131 44.0315 54.0609V51.3513" fill="#213360"/>
<rect id="Rectangle 266" x="17.2617" y="25.8877" width="32.3596" height="19.4157" fill="#F99746"/>
<path id="Vector_2" d="M58.3287 24.5883H58.3223C58.2807 23.5552 57.4438 22.7295 56.4109 22.7295H7.20105C6.1685 22.7295 5.33279 23.5552 5.29117 24.5883H5.28125C5.28125 24.6099 5.28468 24.6319 5.28468 24.6519C5.28468 24.6585 5.28125 24.6635 5.28125 24.6685V24.9113C5.28125 24.9449 5.29117 24.9749 5.2927 25.0085C5.4335 36.1351 11.1959 44.9653 19.5794 49.3054H44.0325C52.4171 44.9649 58.1775 36.1351 58.3192 25.0085C58.3226 24.9749 58.3291 24.9449 58.3291 24.9113V24.6685V24.6519V24.5883H58.3287ZM24.7254 40.6984C22.9002 41.9177 21.7562 43.795 21.7562 43.795C21.7562 43.795 21.0731 44.1902 20.2344 43.795C19.3941 43.3965 19.4487 42.718 19.4487 42.718C20.5859 40.8473 22.2568 39.7506 23.5946 39.1226C26.0464 39.0605 29.2789 38.744 32.4403 37.7325C39.7028 35.408 42.3135 31.692 42.3135 31.692C35.6197 35.4951 27.9408 37.4862 23.838 37.4862C24.3451 34.358 26.1672 29.4631 32.6073 28.5854C36.9174 27.9941 40.1747 29.4446 46.5004 28.006C48.8048 27.4791 40.4949 48.5826 24.725 40.6987L24.7254 40.6984Z" fill="#213360"/>
<path id="Vector_3" d="M51.2036 20.6812L54.5108 15.5836C55.9365 13.2591 55.643 10.7608 53.6122 9.10585C51.5798 7.45132 49.1014 7.68727 47.1538 9.58655L36.3789 20.6816L51.2036 20.6812Z" fill="#F99746"/>
</g>
</g>
</svg>
