<?xml version="1.0" standalone="no"?>
<!DOCTYPE svg PUBLIC "-//W3C//DTD SVG 20010904//EN"
 "http://www.w3.org/TR/2001/REC-SVG-20010904/DTD/svg10.dtd">
<svg version="1.0" xmlns="http://www.w3.org/2000/svg"
 width="612.000000pt" height="612.000000pt" viewBox="0 0 612.000000 612.000000"
 preserveAspectRatio="xMidYMid meet">

<g transform="translate(0.000000,612.000000) scale(0.120000,-0.120000)"
fill="#000000" stroke="none">
<path d="M2360 5156 c-115 -32 -202 -106 -253 -214 -30 -62 -32 -75 -32 -172
0 -93 3 -111 27 -163 54 -114 176 -207 298 -224 l53 -8 2 -100 c7 -310 173
-567 449 -695 195 -91 427 -94 629 -10 206 86 382 293 444 520 24 89 24 290 0
380 -62 232 -235 432 -453 523 -200 84 -451 74 -645 -24 l-56 -28 -21 37 c-24
44 -93 110 -142 140 -83 48 -205 64 -300 38z" fill="#213360"/>
<path d="M2531 3533 c-231 -241 -399 -455 -539 -686 -325 -538 -356 -900 -107
-1283 78 -122 248 -289 387 -381 311 -208 717 -317 952 -257 265 68 313 338
86 487 -25 16 -36 26 -25 22 38 -14 291 -18 376 -6 273 39 509 151 683 324
169 168 246 378 217 590 -28 198 -149 477 -300 692 -118 167 -456 555 -485
555 -5 0 -37 -18 -70 -40 -87 -56 -183 -97 -284 -121 -73 -18 -109 -20 -227
-16 -122 4 -152 8 -235 35 -99 33 -206 90 -277 148 -23 19 -45 34 -50 34 -4 0
-50 -44 -102 -97z m544 -467 c42 -32 74 -95 75 -143 0 -18 -11 -62 -25 -99
-60 -158 -72 -372 -29 -495 27 -75 79 -161 132 -216 31 -32 37 -43 22 -38 -35
11 -122 8 -167 -5 -65 -20 -134 -78 -166 -140 -53 -106 -44 -214 28 -319 19
-28 33 -51 30 -51 -13 0 -196 116 -265 168 -108 82 -221 198 -279 286 -46 71
-89 162 -80 170 2 2 85 30 184 62 138 45 179 63 176 74 -2 8 -6 83 -9 165 -5
170 9 268 60 421 49 150 102 197 214 191 49 -2 69 -8 99 -31z m640 -275 c163
-81 249 -268 200 -437 -31 -109 -95 -187 -198 -242 -48 -25 -61 -27 -162 -27
-100 0 -115 2 -167 28 -66 32 -144 112 -179 184 -21 41 -24 63 -24 153 0 94 3
111 27 160 39 79 88 132 156 168 79 42 123 52 211 47 57 -3 88 -11 136 -34z" fill="#EE5463"/>
</g>
</svg>
