<svg width="64" height="64" viewBox="0 0 64 64" fill="none" xmlns="http://www.w3.org/2000/svg">
<g id="Nutrition">
<g id="Group">
<path id="Vector" d="M31.3411 20.3199C31.4178 17.1927 32.4864 14.1625 34.4033 11.6359C35.9536 9.57097 37.5312 8.51323 37.5456 8.50421C37.9263 8.25389 38.0238 7.75406 37.7636 7.38773C37.5038 7.02187 36.9842 6.92764 36.6034 7.17797C36.5306 7.22631 34.8074 8.37342 33.0928 10.6391C32.672 11.1967 32.2866 11.778 31.9382 12.3804C30.8726 9.39613 28.4607 7.03585 25.3772 5.95955C22.2937 4.88324 18.8694 5.20652 16.0624 6.83835C15.7796 7.00182 15.6237 7.31032 15.6641 7.62538C16.0713 10.8161 17.9844 13.6488 20.8495 15.3035C23.7149 16.9578 27.2128 17.2504 30.3321 16.0959C29.9109 17.5417 29.6865 19.0343 29.6656 20.5354C29.4867 20.5022 29.3121 20.451 29.1443 20.383C24.4279 18.4648 19.0262 18.947 14.7578 21.6674C10.4894 24.3877 7.92091 28.9842 7.91797 33.9103C7.91797 38.2032 9.77485 44.4772 12.5377 49.5221C14.0377 52.2593 15.7489 54.5294 17.4866 56.0883C19.3946 57.7963 21.3087 58.6624 23.1843 58.6624L23.1847 58.6628C25.0936 58.6653 26.9858 58.3224 28.7631 57.6521C29.6618 57.3112 30.6609 57.3112 31.5595 57.6521C33.3364 58.3224 35.2281 58.6653 37.137 58.6628C39.1523 58.6628 41.2022 57.6718 43.2355 55.7171V20.4419C39.448 18.8609 35.1579 18.817 31.336 20.3202L31.3411 20.3199Z" fill="#EE5463"/>
<g id="Mask group">
<mask id="mask0_1_13798" style="mask-type:alpha" maskUnits="userSpaceOnUse" x="13" y="4" width="41" height="17">
<path id="Rectangle 264" d="M13.6602 4.3147L53.5703 4.67425L30.559 20.854L15.0984 15.8203L13.6602 4.3147Z" fill="#C4C4C4"/>
</mask>
<g mask="url(#mask0_1_13798)">
<path id="Vector_2" d="M31.3411 20.3199C31.4178 17.1927 32.4864 14.1625 34.4033 11.6359C35.9536 9.57097 37.5312 8.51323 37.5456 8.50421C37.9263 8.25389 38.0238 7.75406 37.7636 7.38773C37.5038 7.02187 36.9842 6.92764 36.6034 7.17797C36.5306 7.22631 34.8074 8.37342 33.0928 10.6391C32.672 11.1967 32.2866 11.778 31.9382 12.3804C30.8726 9.39613 28.4607 7.03585 25.3772 5.95955C22.2937 4.88324 18.8694 5.20652 16.0624 6.83835C15.7796 7.00182 15.6237 7.31032 15.6641 7.62538C16.0713 10.8161 17.9844 13.6488 20.8495 15.3035C23.7149 16.9578 27.2128 17.2504 30.3321 16.0959C29.9109 17.5417 29.6865 19.0343 29.6656 20.5354C29.4867 20.5022 29.3121 20.451 29.1443 20.383C24.4279 18.4648 19.0262 18.947 14.7578 21.6674C10.4894 24.3877 7.92091 28.9842 7.91797 33.9103C7.91797 38.2032 9.77485 44.4772 12.5377 49.5221C14.0377 52.2593 15.7489 54.5294 17.4866 56.0883C19.3946 57.7963 21.3087 58.6624 23.1843 58.6624L23.1847 58.6628C25.0936 58.6653 26.9858 58.3224 28.7631 57.6521C29.6618 57.3112 30.6609 57.3112 31.5595 57.6521C33.3364 58.3224 35.2281 58.6653 37.137 58.6628C39.1523 58.6628 41.2022 57.6718 43.2355 55.7171V20.4419C39.448 18.8609 35.1579 18.817 31.336 20.3202L31.3411 20.3199Z" fill="#213360"/>
</g>
</g>
<path id="Vector_3" d="M44.9102 13.9151H51.0456C51.5064 13.9151 51.8803 14.2748 51.8803 14.7181C51.8803 15.1618 51.5064 15.5211 51.0456 15.5211H44.9102V20.673H51.0456C51.5064 20.673 51.8803 21.0328 51.8803 21.476C51.8803 21.9193 51.5064 22.2791 51.0456 22.2791H44.9102V27.431H51.0456C51.5064 27.431 51.8803 27.7903 51.8803 28.234C51.8803 28.6773 51.5064 29.037 51.0456 29.037H44.9102V34.1889H51.0456C51.5064 34.1889 51.8803 34.5483 51.8803 34.992C51.8803 35.4352 51.5064 35.795 51.0456 35.795H44.9102V40.949H51.0456C51.5064 40.949 51.8803 41.3087 51.8803 41.752C51.8803 42.1953 51.5064 42.555 51.0456 42.555H44.9102V47.7057H51.0456C51.5064 47.7057 51.8803 48.0654 51.8803 48.5087C51.8803 48.952 51.5064 49.3117 51.0456 49.3117H44.9102V54.4636H51.0456C51.5064 54.4636 51.8803 54.8229 51.8803 55.2666C51.8803 55.7099 51.5064 56.0696 51.0456 56.0696H44.9102V58.6668H56.4488V10.5938H44.9102V13.9151Z" fill="#F99746"/>
</g>
</g>
</svg>
