<svg width="64" height="64" viewBox="0 0 64 64" fill="none" xmlns="http://www.w3.org/2000/svg">
<g id="Obat">
<g id="Group">
<path id="Vector" d="M18.8029 33.9935C16.3487 31.5393 12.2945 31.5393 9.84065 33.9935C7.38645 36.4477 7.38645 40.502 9.84065 42.9558L14.7487 47.8638L23.7109 38.955L18.8029 33.9935Z" fill="#92C3D1"/>
<path id="Vector_2" d="M30.0056 45.1971L25.0976 40.2891L16.082 49.2513L20.99 54.1593C23.4442 56.6135 27.4985 56.6135 29.9523 54.1593C32.4597 51.7055 32.4597 47.7044 30.0055 45.1971H30.0056Z" fill="#213360"/>
<path id="Vector_3" d="M51.9324 47.1706C56.4135 42.6894 56.6271 35.4873 52.466 30.7927L35.5547 47.704C40.2494 51.8652 47.4513 51.6516 51.9325 47.1704L51.9324 47.1706Z" fill="#EE5463"/>
<path id="Vector_4" d="M34.9668 30.206C30.4857 34.6872 30.2721 41.8892 34.4332 46.5839L51.3445 29.6725C46.6502 25.511 39.4479 25.7247 34.9667 30.2058L34.9668 30.206Z" fill="#213360"/>
<path id="Vector_5" d="M18.4813 21.0831C16.0271 23.5373 16.0271 27.5916 18.4813 30.0454C20.9355 32.4996 24.9897 32.4996 27.4435 30.0454L32.3516 25.1374L23.4424 16.1218L18.4813 21.0831Z" fill="#F99746"/>
<path id="Vector_6" d="M29.6854 9.88052L24.7773 14.7885L33.7396 23.7508L38.6476 18.8428C41.1018 16.3886 41.1018 12.3343 38.6476 9.88052C36.1938 7.37316 32.1927 7.37316 29.6854 9.88052Z" fill="#213360"/>
</g>
</g>
</svg>
