<svg width="64" height="64" viewBox="0 0 64 64" fill="none" xmlns="http://www.w3.org/2000/svg">
<g id="Perawatan Tubuh" clip-path="url(#clip0_1_13821)">
<g id="Group">
<path id="Vector" fill-rule="evenodd" clip-rule="evenodd" d="M41.9794 47.8332V54.7283C41.9794 55.7729 41.5684 56.7744 40.8375 57.5132C40.1065 58.2517 39.1147 58.6668 38.0806 58.6668H26.9579C25.9238 58.6668 24.9325 58.252 24.2011 57.5132C23.4701 56.7747 23.0591 55.7729 23.0591 54.7283V47.8332H41.9794ZM22.9385 45.9582L18.4891 7.42575C18.4276 6.89414 18.5941 6.36137 18.9465 5.96185C19.2986 5.5623 19.8031 5.3335 20.333 5.3335H44.7072C45.2367 5.3335 45.7413 5.56229 46.0937 5.96185C46.4458 6.3614 46.6122 6.89414 46.5511 7.42575L42.1017 45.9582H22.9385ZM33.4474 31.0353V29.3868C33.4474 28.8693 33.0317 28.4493 32.5194 28.4493C32.0071 28.4493 31.5914 28.8693 31.5914 29.3868V31.0353C31.5914 31.5528 32.0071 31.9728 32.5194 31.9728C33.0317 31.9728 33.4474 31.5528 33.4474 31.0353ZM27.8719 29.4787L29.0256 28.3132C29.3876 27.9475 29.3876 27.3534 29.0256 26.9873C28.6632 26.6216 28.0755 26.6216 27.7131 26.9873L26.5593 28.1528C26.1973 28.5185 26.1973 29.1126 26.5593 29.4787C26.9217 29.8444 27.5095 29.8444 27.8719 29.4787ZM36.0134 28.3132L37.1672 29.4787C37.5292 29.8444 38.1173 29.8444 38.4797 29.4787C38.8417 29.1126 38.8417 28.5189 38.4797 28.1528L37.326 26.9873C36.964 26.6216 36.3758 26.6216 36.0134 26.9873C35.6514 27.3534 35.6514 27.9471 36.0134 28.3132ZM32.5197 19.1104C30.1444 19.1104 28.2161 21.0587 28.2161 23.4579C28.2161 25.8574 30.1448 27.8053 32.5197 27.8053C34.895 27.8053 36.8232 25.857 36.8232 23.4579C36.8232 21.0583 34.8946 19.1104 32.5197 19.1104ZM32.5197 20.9855C33.8705 20.9855 34.9672 22.0934 34.9672 23.458C34.9672 24.8225 33.8705 25.9304 32.5197 25.9304C31.1689 25.9304 30.0722 24.8225 30.0722 23.458C30.0722 22.0934 31.1689 20.9855 32.5197 20.9855ZM38.3887 24.3955H40.0206C40.5328 24.3955 40.9486 23.9755 40.9486 23.458C40.9486 22.9405 40.5328 22.5205 40.0206 22.5205H38.3887C37.8765 22.5205 37.4607 22.9405 37.4607 23.458C37.4607 23.9755 37.8765 24.3955 38.3887 24.3955ZM25.0185 24.3955H26.6503C27.1626 24.3955 27.5783 23.9755 27.5783 23.458C27.5783 22.9405 27.1626 22.5205 26.6503 22.5205H25.0185C24.5062 22.5205 24.0905 22.9405 24.0905 23.458C24.0905 23.9755 24.5062 24.3955 25.0185 24.3955ZM26.5593 18.763L27.7131 19.9285C28.0751 20.2942 28.6632 20.2942 29.0256 19.9285C29.3876 19.5624 29.3876 18.9687 29.0256 18.6026L27.8719 17.4371C27.5098 17.0714 26.9217 17.0714 26.5593 17.4371C26.1973 17.8032 26.1973 18.3969 26.5593 18.763ZM37.3257 19.9285L38.4794 18.763C38.8414 18.3973 38.8414 17.8032 38.4794 17.4371C38.117 17.0714 37.5293 17.0714 37.1669 17.4371L36.0132 18.6026C35.6512 18.9683 35.6512 19.5624 36.0132 19.9285C36.3755 20.2942 36.9633 20.2942 37.3257 19.9285ZM33.4474 17.529V15.8805C33.4474 15.363 33.0317 14.943 32.5194 14.943C32.0071 14.943 31.5914 15.363 31.5914 15.8805V17.529C31.5914 18.0465 32.0071 18.4665 32.5194 18.4665C33.0317 18.4665 33.4474 18.0465 33.4474 17.529Z" fill="#213360"/>
<g id="Mask group">
<mask id="mask0_1_13821" style="mask-type:alpha" maskUnits="userSpaceOnUse" x="15" y="-3" width="64" height="64">
<rect id="Rectangle 269" x="15" y="-3" width="64" height="64" fill="#C4C4C4"/>
</mask>
<g mask="url(#mask0_1_13821)">
<path id="Vector_2" fill-rule="evenodd" clip-rule="evenodd" d="M41.9794 47.8332V54.7283C41.9794 55.7729 41.5684 56.7744 40.8375 57.5132C40.1065 58.2517 39.1148 58.6668 38.0806 58.6668H26.9579C25.9238 58.6668 24.9325 58.252 24.2011 57.5132C23.4701 56.7747 23.0591 55.7729 23.0591 54.7283V47.8332H41.9794ZM22.9385 45.9582L18.4891 7.42575C18.4276 6.89414 18.5941 6.36137 18.9465 5.96185C19.2986 5.5623 19.8031 5.3335 20.333 5.3335H44.7072C45.2367 5.3335 45.7413 5.56229 46.0937 5.96185C46.4458 6.3614 46.6122 6.89414 46.5511 7.42575L42.1017 45.9582H22.9385ZM33.4474 31.0353V29.3868C33.4474 28.8693 33.0317 28.4493 32.5194 28.4493C32.0071 28.4493 31.5914 28.8693 31.5914 29.3868V31.0353C31.5914 31.5528 32.0071 31.9728 32.5194 31.9728C33.0317 31.9728 33.4474 31.5528 33.4474 31.0353ZM27.8719 29.4787L29.0256 28.3132C29.3876 27.9475 29.3876 27.3534 29.0256 26.9873C28.6632 26.6216 28.0755 26.6216 27.7131 26.9873L26.5593 28.1528C26.1973 28.5185 26.1973 29.1126 26.5593 29.4787C26.9217 29.8444 27.5095 29.8444 27.8719 29.4787ZM36.0134 28.3132L37.1672 29.4787C37.5292 29.8444 38.1173 29.8444 38.4797 29.4787C38.8417 29.1126 38.8417 28.5189 38.4797 28.1528L37.326 26.9873C36.964 26.6216 36.3758 26.6216 36.0134 26.9873C35.6514 27.3534 35.6514 27.9471 36.0134 28.3132ZM32.5197 19.1104C30.1444 19.1104 28.2161 21.0587 28.2161 23.4579C28.2161 25.8574 30.1448 27.8053 32.5197 27.8053C34.895 27.8053 36.8232 25.857 36.8232 23.4579C36.8232 21.0583 34.8946 19.1104 32.5197 19.1104ZM32.5197 20.9855C33.8705 20.9855 34.9672 22.0934 34.9672 23.458C34.9672 24.8225 33.8705 25.9304 32.5197 25.9304C31.1689 25.9304 30.0722 24.8225 30.0722 23.458C30.0722 22.0934 31.1689 20.9855 32.5197 20.9855ZM38.3887 24.3955H40.0206C40.5328 24.3955 40.9486 23.9755 40.9486 23.458C40.9486 22.9405 40.5328 22.5205 40.0206 22.5205H38.3887C37.8765 22.5205 37.4607 22.9405 37.4607 23.458C37.4607 23.9755 37.8765 24.3955 38.3887 24.3955ZM25.0185 24.3955H26.6503C27.1626 24.3955 27.5783 23.9755 27.5783 23.458C27.5783 22.9405 27.1626 22.5205 26.6503 22.5205H25.0185C24.5062 22.5205 24.0905 22.9405 24.0905 23.458C24.0905 23.9755 24.5062 24.3955 25.0185 24.3955ZM26.5593 18.763L27.7131 19.9285C28.0751 20.2942 28.6632 20.2942 29.0256 19.9285C29.3876 19.5624 29.3876 18.9687 29.0256 18.6026L27.8719 17.4371C27.5098 17.0714 26.9217 17.0714 26.5593 17.4371C26.1973 17.8032 26.1973 18.3969 26.5593 18.763ZM37.3257 19.9285L38.4794 18.763C38.8414 18.3973 38.8414 17.8032 38.4794 17.4371C38.117 17.0714 37.5293 17.0714 37.1669 17.4371L36.0132 18.6026C35.6512 18.9683 35.6512 19.5624 36.0132 19.9285C36.3755 20.2942 36.9633 20.2942 37.3257 19.9285ZM33.4474 17.529V15.8805C33.4474 15.363 33.0317 14.943 32.5194 14.943C32.0071 14.943 31.5914 15.363 31.5914 15.8805V17.529C31.5914 18.0465 32.0071 18.4665 32.5194 18.4665C33.0317 18.4665 33.4474 18.0465 33.4474 17.529Z" fill="#F99746"/>
</g>
</g>
</g>
</g>
<defs>
<clipPath id="clip0_1_13821">
<rect width="63.3535" height="64" fill="white"/>
</clipPath>
</defs>
</svg>
