<svg width="64" height="64" viewBox="0 0 64 64" fill="none" xmlns="http://www.w3.org/2000/svg">
<g id="Vitamin">
<g id="Group">
<path id="Vector" d="M24.0121 30.4514C21.7763 30.4514 19.6322 31.3487 18.0512 32.9457C16.4701 34.5429 15.582 36.7089 15.582 38.9676C15.582 41.2263 16.4702 43.3922 18.0512 44.9894C19.6322 46.5865 21.7763 47.4837 24.0121 47.4837C26.248 47.4837 28.3921 46.5864 29.9731 44.9894C31.5541 43.3922 32.4422 41.2263 32.4422 38.9676C32.4398 36.7096 31.5506 34.545 29.9703 32.9486C28.39 31.3521 26.2472 30.4539 24.0121 30.4514ZM27.6644 43.1544C26.7882 44.2131 25.4809 44.8089 24.1154 44.7712C22.3818 44.7712 20.7512 43.9403 19.7204 42.5326C18.6895 41.1252 18.3802 39.3069 18.8873 37.6323C19.394 35.9578 20.6568 34.6251 22.2908 34.0406C23.9244 33.4558 25.736 33.6884 27.1733 34.6675C27.5226 34.9074 27.6136 35.3878 27.3772 35.7411C27.1405 36.0946 26.6656 36.1883 26.3149 35.9505C25.2803 35.2461 23.9768 35.0792 22.8009 35.5002C21.6249 35.9211 20.7162 36.8806 20.3519 38.0858C19.9875 39.291 20.2102 40.5991 20.9523 41.6121C21.6944 42.6251 22.8679 43.2227 24.1153 43.2227C25.0281 43.2607 25.906 42.8671 26.4907 42.1579C26.763 41.8306 27.2465 41.7884 27.5708 42.0635C27.8948 42.3386 27.9365 42.827 27.6642 43.1543L27.6644 43.1544Z" fill="#F99746"/>
<path id="Vector_2" d="M11.7484 18.0646H12.5147V20.3871H35.5059V18.0646H36.2723C36.882 18.0639 37.4664 17.8188 37.8975 17.3837C38.3282 16.9482 38.5708 16.3579 38.5715 15.742V10.3226C38.5708 9.70671 38.3282 9.11637 37.8975 8.68087C37.4664 8.24573 36.882 8.00069 36.2723 8H11.7484C11.1387 8.00069 10.5543 8.24573 10.1232 8.68087C9.69247 9.11636 9.4499 9.7067 9.44922 10.3226V15.742C9.4499 16.3578 9.69247 16.9482 10.1232 17.3837C10.5543 17.8188 11.1387 18.0639 11.7484 18.0646Z" fill="#213360"/>
<path id="Vector_3" d="M37.8065 21.9353H10.2171C9.60744 21.936 9.02306 22.181 8.59196 22.6162C8.16122 23.0517 7.91865 23.642 7.91797 24.2579V53.6773C7.91865 54.2931 8.16122 54.8835 8.59196 55.319C9.02305 55.7541 9.60743 55.9992 10.2171 55.9999H37.8065C38.4162 55.9992 39.0006 55.7541 39.4317 55.319C39.8624 54.8835 40.105 54.2932 40.1057 53.6773V24.2579C40.105 23.642 39.8624 23.0517 39.4317 22.6162C39.0006 22.181 38.4162 21.936 37.8065 21.9353ZM24.0118 49.0321C21.3695 49.0321 18.8353 47.9717 16.967 46.0843C15.0986 44.1969 14.049 41.6368 14.049 38.9676C14.049 36.2983 15.0986 33.7383 16.967 31.8508C18.8353 29.9634 21.3695 28.903 24.0118 28.903C26.6541 28.903 29.1883 29.9634 31.0567 31.8508C32.925 33.7383 33.9747 36.2983 33.9747 38.9676C33.9716 41.6357 32.9213 44.194 31.0535 46.0811C29.1855 47.9678 26.653 49.0289 24.0118 49.0321Z" fill="#EE5463"/>
<path id="Vector_4" d="M49.3029 31.2258C47.6774 31.2276 46.119 31.8808 44.9697 33.042C43.8202 34.203 43.1735 35.7773 43.1719 37.4194V42.8387H55.4338V37.4194C55.4321 35.7773 54.7855 34.203 53.636 33.042C52.4868 31.8808 50.9284 31.2275 49.3029 31.2258Z" fill="#4BB3CE"/>
<path id="Vector_5" d="M43.1719 49.8066C43.1719 52.0193 44.3406 54.0639 46.2374 55.1703C48.1341 56.2766 50.4716 56.2766 52.3684 55.1703C54.2651 54.0639 55.4338 52.0193 55.4338 49.8066V44.3872H43.1719V49.8066Z" fill="#213360"/>
</g>
</g>
</svg>
